<svg width="119" height="56" viewBox="0 0 119 56" fill="none" xmlns="http://www.w3.org/2000/svg">
<g clip-path="url(#clip0_1_2445)">
<path d="M35.8866 15.9967C34.9959 17.0438 33.5707 17.8697 32.1456 17.7517C31.9674 16.3359 32.6652 14.8316 33.4816 13.9025C34.3724 12.8259 35.9311 12.0591 37.193 12C37.3415 13.4749 36.7625 14.9201 35.8866 15.9967ZM37.1781 18.0319C35.1146 17.9139 33.3481 19.1969 32.3682 19.1969C31.3736 19.1969 29.8742 18.0909 28.2412 18.1204C26.1183 18.1499 24.1438 19.3445 23.0602 21.247C20.8334 25.0519 22.4812 30.6855 24.6338 33.7826C25.6877 35.3164 26.9497 36.9976 28.6124 36.9386C30.1859 36.8797 30.8094 35.9211 32.7097 35.9211C34.6247 35.9211 35.1741 36.9386 36.8367 36.9092C38.5587 36.8797 39.6425 35.3754 40.6966 33.8416C41.899 32.1013 42.3889 30.4054 42.4186 30.3169C42.3889 30.2874 39.0932 29.0338 39.0636 25.2584C39.0338 22.1024 41.6615 20.598 41.7802 20.5095C40.2957 18.3268 37.9798 18.0909 37.1781 18.0319ZM49.099 13.7551V36.747H52.6916V28.8863H57.6648C62.2077 28.8863 65.3995 25.7892 65.3995 21.306C65.3995 16.8226 62.2665 13.7551 57.7836 13.7551H49.099ZM52.6916 16.7636H56.8335C59.9511 16.7636 61.7328 18.4154 61.7328 21.3207C61.7328 24.226 59.9511 25.8925 56.8187 25.8925H52.6916V16.7636ZM71.9613 36.9239C74.2172 36.9239 76.3105 35.7883 77.2611 33.9891H77.3346V36.747H80.6605V25.3026C80.6605 21.9843 77.9885 19.8459 73.8764 19.8459C70.0609 19.8459 67.2402 22.0138 67.1364 24.9929H70.3723C70.6396 23.5771 71.9613 22.6479 73.7717 22.6479C75.9697 22.6479 77.2014 23.6656 77.2014 25.5386V26.8069L72.7182 27.0724C68.5464 27.3231 66.2905 29.0191 66.2905 31.9686C66.2905 34.9477 68.6207 36.9239 71.9613 36.9239ZM72.9258 34.1956C71.0107 34.1956 69.7937 33.2812 69.7937 31.8802C69.7937 30.4349 70.9666 29.5943 73.2078 29.4615L77.2014 29.2108V30.5086C77.2014 32.6618 75.3607 34.1956 72.9258 34.1956ZM85.0996 43C88.6028 43 90.2506 41.6727 91.6908 37.6466L98 20.0672H94.348L90.1174 33.6499H90.043L85.8115 20.0672H82.0557L88.1426 36.8059L87.8157 37.8235C87.2664 39.549 86.3763 40.2127 84.7873 40.2127C84.5054 40.2127 83.9561 40.1832 83.7338 40.1537V42.9115C83.9414 42.9705 84.8323 43 85.0996 43Z" fill="white"/>
</g>
<defs>
<clipPath id="clip0_1_2445">
<rect width="119" height="56" fill="white"/>
</clipPath>
</defs>
</svg>
