<svg width="119" height="56" viewBox="0 0 119 56" fill="none" xmlns="http://www.w3.org/2000/svg">
<path d="M8.03497 30.1962L12.5809 34.7421L17.1287 30.1944L19.7741 32.8361L19.7723 32.838L12.5809 40.0312L5.3895 32.8417L5.3858 32.838L8.03497 30.1962ZM15.2633 28.3272L12.5809 31.0133L9.89845 28.3327L9.89475 28.3272L10.368 27.8539L10.5973 27.6265L12.5809 25.6429L15.2633 28.3272ZM18.9921 28.329L21.6376 25.6836L24.2812 28.329L21.6376 30.9727L18.9921 28.329ZM0.875 28.329L3.52047 25.6836L6.1641 28.329L3.52047 30.9727L0.875 28.329ZM8.03497 26.46L12.5809 21.9159L17.1287 26.4637L19.7723 23.8182L12.5809 16.625L5.3895 23.8164L8.03497 26.46Z" fill="white"/>
<path d="M28.4076 22.2969H34.1607C35.5879 22.2969 36.6675 22.6666 37.3996 23.4061C37.9561 23.9588 38.263 24.715 38.2482 25.4988V25.5339C38.2537 25.8519 38.2093 26.168 38.1169 26.4731C38.0356 26.7356 37.9154 26.9833 37.7638 27.2125C37.6215 27.4288 37.4495 27.6229 37.2536 27.7893C37.0613 27.9539 36.8506 28.0981 36.6269 28.2145C37.2739 28.4401 37.8562 28.8209 38.3221 29.3237C38.7344 29.7915 38.9396 30.4385 38.9396 31.2649V31.3C38.9507 31.8158 38.8397 32.326 38.6124 32.79C38.3924 33.2171 38.0707 33.5831 37.6751 33.8549C37.2277 34.1544 36.7304 34.3707 36.2054 34.4927C35.5824 34.6406 34.9427 34.7108 34.3031 34.7053H28.4076V22.2969ZM33.5839 27.3142C34.0812 27.3382 34.5767 27.231 35.0204 27.0036C35.3716 26.7984 35.5787 26.4084 35.5491 26.0016V25.9665C35.5676 25.5931 35.3938 25.2344 35.0888 25.0181C34.7819 24.8 34.3382 24.6909 33.7595 24.6909H31.0679V27.3142H33.5839ZM34.3105 32.3149C34.8059 32.3426 35.2995 32.2299 35.7339 31.9877C36.0778 31.7677 36.2756 31.3758 36.2479 30.9672V30.9321C36.2608 30.5457 36.0815 30.176 35.7691 29.9486C35.4511 29.7027 34.9372 29.5789 34.2273 29.5789H31.0679V32.3149H34.3105Z" fill="white"/>
<path d="M42.3669 22.2969H45.0975V34.709H42.3669V22.2969Z" fill="white"/>
<path d="M49.2297 22.2969H51.7476L57.5673 29.9357V22.2969H60.2627V34.709H57.9389L51.9288 26.8188V34.709H49.2297V22.2969Z" fill="white"/>
<path d="M68.5299 22.2083H71.0441L76.3628 34.7091H73.5121L72.377 31.925H67.1286L65.9935 34.7091H63.2094L68.5299 22.2083ZM71.4027 29.5143L69.75 25.4878L68.1047 29.5143H71.4027Z" fill="white"/>
<path d="M79.3151 22.2969H81.833L87.649 29.9357V22.2969H90.3443V34.709H88.0205L82.0105 26.8188V34.709H79.3151V22.2969Z" fill="white"/>
<path d="M100.172 34.9271C99.3008 34.9345 98.4394 34.7663 97.6352 34.4317C96.1082 33.8013 94.8991 32.5793 94.2835 31.0449C93.9618 30.25 93.7991 29.4014 93.8047 28.5436V28.5085C93.7899 26.8207 94.4406 25.192 95.6146 23.9774C96.1913 23.3839 96.8846 22.9144 97.6481 22.5946C98.48 22.2507 99.3711 22.0788 100.271 22.0899C100.804 22.0862 101.334 22.1342 101.858 22.2322C102.305 22.3172 102.743 22.4485 103.163 22.6223C103.544 22.7831 103.908 22.9846 104.244 23.225C104.573 23.4597 104.882 23.7204 105.169 24.0051L103.433 26.0091C102.989 25.6005 102.492 25.253 101.954 24.9794C101.425 24.7261 100.846 24.6004 100.26 24.6096C99.275 24.5985 98.3321 25.0126 97.6721 25.7447C97.3486 26.1052 97.0954 26.5249 96.9253 26.9778C96.7478 27.4566 96.6572 27.965 96.6609 28.4771V28.5122C96.6591 29.0224 96.7478 29.5308 96.9253 30.0096C97.0935 30.4644 97.3449 30.8859 97.6648 31.2501C98.3192 31.9914 99.2639 32.4129 100.253 32.4037C100.876 32.424 101.493 32.2891 102.052 32.0136C102.584 31.7234 103.074 31.3666 103.514 30.9488L105.252 32.705C104.945 33.0378 104.612 33.3465 104.259 33.6294C103.911 33.9048 103.534 34.1396 103.133 34.33C102.706 34.5315 102.257 34.6794 101.795 34.7719C101.26 34.8791 100.717 34.9308 100.172 34.9271Z" fill="white"/>
<path d="M108.474 22.2969H117.815V24.7261H111.16V27.244H117.02V29.6731H111.169V32.2798H117.908V34.709H108.48L108.474 22.2969Z" fill="white"/>
</svg>
