<svg width="118" height="56" viewBox="0 0 118 56" fill="none" xmlns="http://www.w3.org/2000/svg">
<path fill-rule="evenodd" clip-rule="evenodd" d="M25.665 23.3499C30.3142 24.5773 35.0225 21.582 36.1815 16.6601C37.3404 11.7379 34.5116 6.75198 29.8627 5.52494C25.2149 4.29782 20.5066 7.29348 19.3482 12.2159C18.1886 17.1375 21.0177 22.1228 25.665 23.3499ZM29.6696 11.024C30.8475 11.4568 31.7089 12.1054 31.5396 13.3122C31.4171 14.1956 30.9579 14.6232 30.3484 14.7732C31.1854 15.2379 31.6113 15.9507 31.2056 17.1863C30.7021 18.721 29.5059 18.8505 27.9152 18.5294L27.5291 20.1796L26.5962 19.9317L26.9773 18.3035C26.7354 18.2394 26.4883 18.1714 26.2338 18.0977L25.8515 19.7335L24.9196 19.4856L25.3057 17.8322C25.2186 17.8084 25.131 17.784 25.0428 17.7595C24.9102 17.7226 24.7762 17.6853 24.6407 17.6491L23.4267 17.3264L23.8898 16.1873C23.8898 16.1873 24.5772 16.3823 24.5679 16.3679C24.832 16.4376 24.9491 16.254 24.9954 16.1315L25.6054 13.5228C25.6283 13.5286 25.6507 13.5346 25.6723 13.5404C25.6831 13.5433 25.6937 13.5461 25.704 13.5489C25.6668 13.533 25.6331 13.5228 25.607 13.5157L26.0422 11.6534C26.0537 11.442 25.9854 11.1753 25.6075 11.0747C25.6222 11.0642 24.93 10.895 24.93 10.895L25.1782 9.83227L26.4647 10.1749L26.4636 10.18C26.657 10.2313 26.8563 10.2801 27.0594 10.3294L27.4417 8.69524L28.3741 8.94326L27.9994 10.5454C28.2497 10.6063 28.5016 10.6677 28.7468 10.7329L29.1188 9.14135L30.0517 9.38929L29.6696 11.024ZM26.7188 16.9507C27.4801 17.1652 29.1436 17.6339 29.4081 16.5002C29.6792 15.3411 28.0658 14.955 27.2784 14.7665C27.1905 14.7455 27.1128 14.7269 27.0492 14.7099L26.537 16.9004C26.5892 16.9142 26.6504 16.9315 26.7188 16.9507ZM27.4366 13.75C28.0713 13.9307 29.4556 14.3247 29.6967 13.2943C29.9429 12.2404 28.5975 11.9228 27.9404 11.7676C27.8665 11.7502 27.8013 11.7347 27.748 11.7206L27.2836 13.7073C27.3274 13.7189 27.3789 13.7336 27.4366 13.75Z" fill="white"/>
<path fill-rule="evenodd" clip-rule="evenodd" d="M50.3237 23.625C55.1157 23.625 59 19.5116 59 14.4374C59 9.36334 55.1156 5.25 50.3237 5.25C45.5318 5.25 41.6471 9.36334 41.6471 14.4374C41.6471 19.5116 45.5318 23.625 50.3237 23.625ZM50.3793 14.6448L49.8157 16.8918H54.2746L53.8167 18.6978H46.6742L47.4035 15.7959L46.371 16.1953L46.7125 14.8339L47.7457 14.4342L48.9833 9.51027H51.667L50.7208 13.2833L52.0341 12.7752L52.0455 12.808L51.7136 14.1286L50.3793 14.6448Z" fill="white"/>
<path d="M71.582 13.125L65.0735 16.1697L71.582 20.125L78.0882 16.1697L71.582 13.125Z" fill="white"/>
<path d="M65.0735 16.2191L72.0147 20.125V5.25L65.0735 16.2191Z" fill="white"/>
<path d="M72.0146 5.25V20.125L78.0882 16.2191L72.0146 5.25Z" fill="white"/>
<path d="M65.0735 17.5L72.0147 26.25V21.1694L65.0735 17.5Z" fill="white"/>
<path d="M72.0146 21.1694V26.25L78.0882 17.5L72.0146 21.1694Z" fill="white"/>
<path d="M97.1425 16.8046C96.5435 16.4474 95.8694 16.3438 95.2013 16.3197C94.6405 16.2995 93.8043 15.9284 93.8043 14.875C93.8043 14.0902 94.4206 13.4585 95.2013 13.4304C95.8694 13.4063 96.5442 13.3026 97.1425 12.9455C97.6807 12.6246 98.1274 12.1632 98.4374 11.6076C98.7482 11.052 98.9118 10.4217 98.9118 9.78006C98.9118 9.13845 98.7482 8.50814 98.4374 7.95249C98.1274 7.39684 97.6807 6.93548 97.1425 6.61464C96.605 6.29387 95.9947 6.125 95.3739 6.125C94.7524 6.125 94.1428 6.29387 93.6046 6.61472C93.0671 6.93556 92.6205 7.397 92.3097 7.95265C91.9997 8.5083 91.836 9.13861 91.836 9.78022C91.836 10.4883 92.08 11.14 92.3908 11.7445C92.6528 12.2528 92.7849 13.1964 91.8871 13.7316C91.2197 14.1298 90.3873 13.8777 89.9706 13.1897C89.6193 12.6085 89.1952 12.064 88.6007 11.7096C88.0632 11.3889 87.4529 11.22 86.8321 11.22C86.2113 11.22 85.601 11.3889 85.0635 11.7096C84.5253 12.0305 84.0786 12.4918 83.7686 13.0475C83.4578 13.6031 83.2942 14.2334 83.2942 14.875C83.2942 15.5166 83.4578 16.1469 83.7686 16.7025C84.0786 17.2582 84.5253 17.7196 85.0635 18.0404C85.601 18.3611 86.2113 18.5301 86.8321 18.5301C87.4529 18.5301 88.0632 18.3611 88.6007 18.0404C89.1952 17.6861 89.6193 17.142 89.9706 16.5612C90.2589 16.0843 90.9795 15.4764 91.8871 16.0185C92.5537 16.4164 92.7601 17.2881 92.3908 18.006C92.0793 18.6104 91.836 19.2619 91.836 19.9699C91.836 20.6115 91.9997 21.2419 92.3097 21.7975C92.6205 22.3531 93.0671 22.8145 93.6046 23.1353C94.1428 23.4561 94.7524 23.625 95.3739 23.625C95.9947 23.625 96.605 23.4561 97.1425 23.1353C97.6807 22.8145 98.1266 22.3531 98.4374 21.7975C98.7482 21.2419 98.9118 20.6115 98.9118 19.9699C98.9118 19.3284 98.7482 18.6981 98.4374 18.1424C98.1274 17.5868 97.6807 17.1254 97.1425 16.8046Z" fill="white"/>
<path d="M24.1268 46.375C27.1489 46.375 29.4586 45 30.3677 42.65L26.7558 40.775C26.117 42.05 25.1833 42.6 24.1022 42.6C22.4806 42.6 21.2029 41.45 21.2029 39.35C21.2029 37.3 22.4806 36.15 24.1022 36.15C25.1833 36.15 26.117 36.7 26.7558 37.975L30.3677 36.1C29.4586 33.75 27.1489 32.375 24.1268 32.375C19.6549 32.375 16.4854 35.275 16.4854 39.35C16.4854 43.475 19.6549 46.375 24.1268 46.375Z" fill="white"/>
<path d="M36.8618 34.1377V32.5894H32.1029V45.5H37.0985V39.5687C37.0985 37.3058 38.4919 36.3768 40.5164 36.3768C40.8845 36.3768 41.2 36.4007 41.647 36.4483V32.375C39.5436 32.375 37.8872 32.9705 36.8618 34.1377Z" fill="white"/>
<path d="M53.4919 32.375L50.0564 40.5389L46.6466 32.375H41.6471L47.5952 45.9158C47.1849 46.705 46.6466 47.0503 45.6979 47.0503C44.9288 47.0503 44.1083 46.7543 43.5443 46.2611L41.8522 49.5414C42.7752 50.2814 44.416 50.75 45.8774 50.75C48.6207 50.75 50.6717 49.7387 52.1331 46.2857L58.1324 32.375H53.4919Z" fill="white"/>
<path d="M67.7732 32.375C65.9465 32.375 64.5828 32.8683 63.657 33.9289V32.5969H59V50.75H63.8885V44.7812C64.8407 45.7185 66.1523 46.1871 67.7732 46.1871C71.5558 46.1871 74.6176 43.5233 74.6176 39.281C74.6176 35.0388 71.5558 32.375 67.7732 32.375ZM66.7445 42.4627C65.0979 42.4627 63.8113 41.3035 63.8113 39.281C63.8113 37.2586 65.0979 36.0994 66.7445 36.0994C68.3912 36.0994 69.6778 37.2586 69.6778 39.281C69.6778 41.3035 68.3912 42.4627 66.7445 42.4627Z" fill="white"/>
<path d="M84.7615 42.1042C84.3752 42.3906 83.8682 42.5469 83.3604 42.5469C82.5394 42.5469 81.9834 41.9739 81.9834 40.9323V36.2448H84.9788V32.5469H81.9834V28.875H77.3936V32.5469H75.4854V36.2448H77.3936V40.9843C77.3936 44.6041 79.3508 46.375 82.7085 46.375C83.9165 46.375 85.0996 46.1145 85.8971 45.5677L84.7615 42.1042Z" fill="white"/>
<path d="M94.5739 46.375C99.1413 46.375 102.382 43.45 102.382 39.35C102.382 35.275 99.1413 32.375 94.5739 32.375C90.0567 32.375 86.7646 35.275 86.7646 39.35C86.7646 43.45 90.0567 46.375 94.5739 46.375ZM94.5739 42.6C92.9406 42.6 91.6644 41.425 91.6644 39.35C91.6644 37.3 92.9406 36.15 94.5739 36.15C96.2326 36.15 97.4825 37.3 97.4825 39.35C97.4825 41.425 96.2326 42.6 94.5739 42.6Z" fill="white"/>
</svg>
