<svg width="119" height="56" viewBox="0 0 119 56" fill="none" xmlns="http://www.w3.org/2000/svg">
<g clip-path="url(#clip0_1_2463)">
<path d="M95.0903 27.4999V34.3147H96.6094H98.1285V27.4999V20.6851H96.6094H95.0903V27.4999Z" fill="white"/>
<path d="M99.8646 27.4999V34.3147H101.601H103.337V27.4999V20.6851H101.601H99.8646V27.4999Z" fill="white"/>
<path d="M116.358 23.2406C116.358 24.0925 116.141 24.5184 115.707 24.5184C115.273 24.5184 115.056 24.9443 115.056 25.7962C115.056 26.7332 115.273 27.074 115.837 27.074C116.444 27.074 116.575 27.3721 116.444 28.7777C116.141 31.9721 118.007 34.3147 120.915 34.3147C121.826 34.3147 122 34.1017 122 33.0369C122 32.0573 121.783 31.7591 121.175 31.7591C120.047 31.7591 119.743 31.1628 119.656 28.948C119.613 27.1591 119.7 27.074 120.828 27.074C121.826 27.074 122 26.9036 122 25.7962C122 24.6888 121.826 24.5184 120.785 24.5184C119.656 24.5184 119.569 24.3906 119.743 23.2406C119.917 22.0054 119.873 21.9628 118.137 21.9628C116.444 21.9628 116.358 22.048 116.358 23.2406Z" fill="white"/>
<path d="M35.1945 24.0925C35.1945 25.2851 35.2813 25.3277 37.5382 25.4554L39.882 25.5832L37.3212 28.9906C35.9323 30.8647 34.8038 32.824 34.7604 33.3351C34.7604 34.2721 34.8472 34.3147 39.5347 34.3147H44.309V33.0369C44.309 31.8017 44.2656 31.8017 41.7049 31.674L39.1441 31.5462L41.7049 28.011C45.4375 22.9425 45.3507 22.8147 39.7518 22.8147H35.1945V24.0925Z" fill="white"/>
<path d="M67.3125 27.2443C67.3125 31.4184 67.3993 31.7591 68.441 32.9943C69.3524 34.1017 69.8733 34.3147 71.3924 34.3147C72.6944 34.3147 73.4757 34.0591 73.9965 33.5054C74.7344 32.6962 74.7778 32.6962 75.6024 33.5054C76.1233 34.0165 77.0347 34.3147 77.9896 34.3147C81.4618 34.3147 82.5035 32.611 82.5035 26.861V22.8147H80.7674H79.0313V27.3295V31.8017L77.8594 31.674L76.6441 31.5462L76.5139 27.1591L76.3837 22.8147H74.908H73.3889V26.7332C73.3889 31.1628 73.0851 31.8869 71.6094 31.674C70.6111 31.5462 70.5677 31.4184 70.4375 27.1591L70.3073 22.8147H68.8316H67.3125V27.2443Z" fill="white"/>
<path d="M25.6024 25.7536C24.5174 26.861 24.3438 27.3295 24.3438 29.4165C24.3438 31.5036 24.5174 31.9721 25.6024 33.0795C26.6875 34.1017 27.2517 34.3147 29.0747 34.3147C31.3316 34.3147 33.4583 33.7184 33.4583 33.1221C33.4583 32.9517 33.1979 32.4406 32.9375 32.0573C32.4601 31.461 32.1128 31.4184 30.941 31.7165C30.0295 31.9721 29.0747 31.9721 28.4236 31.7591C26.4271 30.9925 27.3385 30.4814 30.6372 30.4814H33.8924V29.2036C33.8924 26.2647 31.9392 24.5184 28.684 24.5184C27.2517 24.5184 26.6007 24.774 25.6024 25.7536ZM30.7674 27.798C30.8542 28.1814 30.3767 28.3517 29.1615 28.3517C27.4688 28.3517 26.9913 28.011 27.6858 27.3295C28.1632 26.861 30.5503 27.2443 30.7674 27.798Z" fill="white"/>
<path d="M46.8698 25.7536C45.7847 26.861 45.6111 27.3295 45.6111 29.4165C45.6111 31.5036 45.7847 31.9721 46.8698 33.0795C47.9548 34.1017 48.5191 34.3147 50.342 34.3147C52.5989 34.3147 54.7257 33.7184 54.7257 33.1221C54.7257 32.9517 54.4653 32.4406 54.2048 32.0573C53.7274 31.461 53.3802 31.4184 52.2083 31.7165C51.2968 31.9721 50.342 31.9721 49.6909 31.7591C47.6944 30.9925 48.6059 30.4814 51.9045 30.4814H55.1597V28.948C55.1597 26.9888 54.5521 25.9665 52.9896 25.1573C50.8628 24.0925 48.3455 24.3054 46.8698 25.7536ZM52.0347 27.798C52.1215 28.1814 51.6441 28.3517 50.4288 28.3517C48.7361 28.3517 48.2587 28.011 48.9531 27.3295C49.4305 26.861 51.8177 27.2443 52.0347 27.798Z" fill="white"/>
<path d="M58.1547 25.1573C55.6373 26.5203 55.2901 31.461 57.5904 33.3777C58.6321 34.2721 59.1095 34.3999 61.5401 34.2295C64.6217 34.0591 65.2293 33.6758 64.8387 32.2703C64.6217 31.4184 64.4047 31.3332 63.2328 31.5888C61.3231 32.0573 59.8908 31.9295 59.4568 31.248C59.1529 30.8221 59.7606 30.6517 62.3213 30.5666L65.5766 30.4388V28.7351C65.5766 26.2647 63.7536 24.5184 61.1495 24.5184C60.1078 24.561 58.7623 24.8166 58.1547 25.1573ZM62.4516 27.798C62.5384 28.1814 62.0609 28.3517 60.8457 28.3517C59.4568 28.3517 59.1529 28.224 59.37 27.6703C59.6738 26.9036 62.1477 26.9888 62.4516 27.798Z" fill="white"/>
<path d="M85.2377 24.8167C84.1093 25.0296 84.0659 25.2426 84.8037 26.4352C85.1943 27.1167 85.802 27.287 87.4513 27.287C88.7968 27.287 89.6648 27.5 89.795 27.7981C89.8818 28.1815 89.361 28.3518 87.9287 28.3518C84.4131 28.3518 82.677 31.1204 84.8471 33.25C85.802 34.187 86.2794 34.2722 89.4044 34.2722H92.92V30.4815C92.92 26.8185 92.8766 26.6907 91.5745 25.6259C90.2725 24.5185 88.1457 24.263 85.2377 24.8167ZM89.8818 30.6944C89.8818 31.6315 88.2325 32.3555 87.4513 31.7167C86.9738 31.3333 86.9304 31.0778 87.3211 30.6518C87.9721 29.8426 89.8818 29.8852 89.8818 30.6944Z" fill="white"/>
<path d="M105.898 25.7536C104.769 26.861 104.639 27.2869 104.639 29.5443C104.639 31.8869 104.769 32.2277 105.984 33.2073C107.026 34.0591 107.764 34.3147 109.413 34.3147C111.627 34.3147 113.753 33.7184 113.753 33.1221C113.753 32.9517 113.493 32.4406 113.233 32.0573C112.799 31.5036 112.365 31.4184 111.149 31.7165C109.5 32.0573 107.677 31.674 107.677 30.9073C107.677 30.6517 108.979 30.4814 110.932 30.4814H114.188V29.2036C114.188 26.2647 112.234 24.5184 108.979 24.5184C107.547 24.5184 106.896 24.774 105.898 25.7536ZM110.889 27.7128C111.063 28.224 110.759 28.3517 109.413 28.3517C107.764 28.3517 107.286 28.011 107.981 27.3721C108.502 26.8184 110.628 27.074 110.889 27.7128Z" fill="white"/>
<path d="M0.90625 16.8093C-1.69792 18.1722 -2.60938 19.4926 -2.86979 22.1333C-3.0434 23.7519 -2.9566 24.5185 -2.60938 24.5185C-2.34896 24.5185 -2.13194 24.8167 -2.13194 25.1574C-2.13194 25.4981 -1.91493 25.7963 -1.69792 25.7963C-1.4375 25.7963 -1.04688 26.2648 -0.786458 26.7759C-0.395833 27.6278 -0.526042 27.9685 -1.65451 29.1185C-2.65278 30.0556 -3 30.8222 -3 31.9296C-3 33.6759 -2.30556 35.7204 -1.78472 35.4222C-1.56771 35.2944 -1.4375 35.5926 -1.4375 36.0611C-1.4809 36.6574 -0.873264 37.2537 0.385417 37.9778C2.16493 38.9574 2.51215 39 11.1059 39H20.0035V36.6574V34.3148H11.8437C5.98438 34.3148 3.46701 34.1444 2.94618 33.7611C1.99132 33.1222 1.51389 30.0556 2.33854 30.0556C3.11979 30.0556 4.8125 28.2667 4.8125 27.4574C4.8125 27.0741 4.11806 26.2222 3.2934 25.4981C1.6441 24.05 1.42708 23.0278 2.38194 21.7074C2.94618 20.9833 3.68403 20.8981 11.4965 20.7704L20.0035 20.6426V18.3V16H11.2361C3.51042 16.0426 2.25174 16.1278 0.90625 16.8093Z" fill="#15C1C1"/>
<path d="M5.72402 23.837C5.33339 24.3055 5.28999 24.6888 5.68062 25.3277C6.11464 26.1796 6.50527 26.2222 12.408 26.2222H18.7015V24.7314V23.2407H12.4515C7.54694 23.2407 6.11464 23.3685 5.72402 23.837Z" fill="#15C1C1"/>
<path d="M5.72392 29.7149C5.46351 30.3964 5.55031 30.9075 6.02774 31.4612C6.63538 32.1001 7.41663 32.1853 12.5816 32.1001L18.4843 31.9723L18.6145 30.3538L18.7448 28.7779H12.408C6.24476 28.7779 6.07115 28.8204 5.72392 29.7149Z" fill="#15C1C1"/>
</g>
<defs>
<clipPath id="clip0_1_2463">
<rect width="119" height="56" fill="white"/>
</clipPath>
</defs>
</svg>
