<svg width="119" height="56" viewBox="0 0 119 56" fill="none" xmlns="http://www.w3.org/2000/svg">
<path fill-rule="evenodd" clip-rule="evenodd" d="M10.5004 20.7055C11.325 20.5605 12.1291 20.1668 12.9537 19.8767C13.2218 19.7317 13.2218 19.4623 13.2218 19.338C13.2218 18.5093 13.2218 17.7012 13.3661 16.8724C13.7784 14.6762 15.2834 13.4538 18.0048 13.1637C19.2418 13.0187 20.6025 13.3087 21.8189 13.5781C22.0869 13.7231 22.3549 13.7231 22.0869 14.1168C21.8189 14.6555 21.6746 15.2149 21.4066 15.8986C21.2622 16.313 21.1385 16.313 20.7262 16.168C20.3139 16.023 19.7779 15.8986 19.2212 15.8986C17.7162 15.8986 17.1802 16.313 16.7678 17.8255C16.3555 19.6074 16.4998 19.7524 18.2728 19.7524H18.5409C20.8705 19.7524 20.8705 19.7524 20.5819 22.0937C20.5819 22.5081 20.4376 22.5081 20.1696 22.5081H17.4688C16.9328 22.5081 16.6441 22.6531 16.6441 23.3368V35.2711C16.6441 35.8098 16.4998 36.0999 15.9638 35.9548H13.7784C13.3661 35.8098 13.2424 35.5404 13.2424 35.1261V23.0675C13.2424 22.5288 13.0981 22.2387 12.562 22.3838H10.5004C10.5004 22.363 10.5004 20.7055 10.5004 20.7055ZM108.079 35.6648H105.213C104.801 35.6648 104.677 35.5197 104.677 35.1261V26.051C104.677 25.6367 104.677 25.2223 104.533 24.8079C104.265 23.1711 103.44 22.3423 101.811 22.1973C99.6261 22.0522 97.9974 23.1504 97.585 25.3466C97.4407 26.1754 97.4407 26.9834 97.4407 27.9572V34.9603C97.4407 35.499 97.2964 35.644 96.7604 35.644H94.575C94.1627 35.644 94.039 35.499 94.039 35.1053V20.1668C94.039 19.7524 94.1833 19.6281 94.575 19.6281C95.2553 19.6281 96.2037 19.3587 96.6161 19.7731C97.0284 20.1875 97.0284 21.0163 97.2964 21.8243C98.2448 20.5812 99.4818 19.8974 100.842 19.4831C102.203 19.2137 103.708 19.2137 105.069 19.7524C106.842 20.2911 107.79 21.6793 108.079 23.4611C108.079 23.6062 107.935 23.8755 108.223 23.8755V24.2899C107.955 24.5593 108.079 24.8286 108.079 25.1187V35.6648Z" fill="white"/>
<path fill-rule="evenodd" clip-rule="evenodd" d="M108.141 35.6648V25.0981C108.141 24.8287 107.997 24.5594 108.285 24.2693L108.141 35.6648Z" fill="white"/>
<path fill-rule="evenodd" clip-rule="evenodd" d="M76.4325 42.73V42.875H73.0308V42.73H76.4325Z" fill="white"/>
<path fill-rule="evenodd" clip-rule="evenodd" d="M76.5567 27.7499C76.5567 28.2886 76.701 29.1174 76.701 29.8011C76.701 30.2155 76.8453 30.4848 76.969 30.8992C77.3813 32.2667 78.3297 33.0954 79.979 33.0954C81.7521 33.2405 82.7004 32.6811 83.5251 31.1686C84.0611 30.0704 84.2054 28.8273 84.2054 27.7499C84.2054 26.5067 84.0611 25.1393 83.5251 24.0412C82.8448 22.798 81.6078 22.1143 80.1234 22.2593C78.6183 22.4043 77.5257 22.943 76.9896 24.6006C76.5567 25.5537 76.5567 26.5067 76.5567 27.7499ZM76.4124 42.6884H73.0106V28.1436V20.3324C73.0106 19.7937 73.1549 19.6487 73.691 19.6487C74.3713 19.7937 75.3197 19.3793 75.732 19.7937C76.1443 20.2081 76.1443 21.0369 76.268 21.7206C76.5361 21.5756 76.6804 21.3062 76.8041 21.1819C78.9894 18.5713 84.8652 18.447 86.7619 23.1088C87.8546 26.1338 87.8546 29.2831 86.7619 32.2874C84.8446 37.0943 78.8451 36.8042 76.6598 34.0692L76.2474 33.6549C76.5567 36.8042 76.4124 39.8085 76.4124 42.6884Z" fill="white"/>
<path fill-rule="evenodd" clip-rule="evenodd" d="M62.4945 27.3356C62.6388 27.75 62.3502 28.2887 63.0305 28.0193C64.8036 27.605 66.1643 26.5068 66.8446 24.87C67.1126 24.1863 66.9889 23.5026 66.4323 23.0882C66.0199 22.6738 65.4839 22.9431 64.9273 23.0882C64.5149 23.2332 64.1026 23.5026 63.8346 23.9169C63.0305 25.0151 62.6388 26.2375 62.4945 27.3356ZM73.009 28.1644V32.4118C71.3803 33.5099 69.8753 34.7531 67.9579 35.4368C66.5972 35.8512 65.3602 36.2656 63.8552 35.9755C60.8452 35.5611 58.8041 33.5099 58.5361 30.4849C58.2681 27.1906 59.0721 24.1863 61.2575 21.5757C62.6182 19.9389 64.3912 19.2344 66.5766 19.6488C69.1743 20.0632 70.6793 22.6738 69.7103 25.1394C68.6177 27.8743 66.4323 29.5318 63.7109 30.4849C62.8862 30.7543 62.7625 30.8993 63.4429 31.583C63.8552 32.2668 64.5356 32.4118 65.2159 32.2668C67.5456 31.9974 69.4423 30.8993 71.3597 29.5318C71.9163 29.1175 72.4523 28.7031 73.009 28.1644Z" fill="#BE2731"/>
<path fill-rule="evenodd" clip-rule="evenodd" d="M58.537 35.7062H54.991C54.5786 35.7062 54.4549 35.4368 54.3106 35.2918C53.0736 33.5099 51.9809 31.7281 50.7645 29.8012C49.6719 31.583 48.4349 33.2199 47.3628 34.8774C46.9505 35.4161 46.5381 35.7062 45.8578 35.7062C44.9094 35.5611 43.9404 35.7062 42.8478 35.7062C43.5281 34.608 44.2085 33.7793 44.8888 32.8262C45.9815 31.1894 46.9298 29.6769 48.0225 28.1644C48.4349 27.6257 48.2905 27.3356 48.0225 26.9212C46.3938 24.58 44.7445 22.2594 42.9715 19.7938H46.7855C47.0536 19.7938 47.0536 20.0632 47.1979 20.2082C48.1462 21.7207 49.2389 23.2332 50.2079 24.87C50.3522 25.0151 50.4759 25.1394 50.6202 25.4087C51.7129 23.7719 52.9499 21.99 53.8983 20.3325C54.1663 19.9181 54.4343 19.7938 54.8466 19.7938H57.9804C58.1247 20.0632 57.836 20.3325 57.7123 20.4776C56.2073 22.6738 54.5786 24.9943 53.0736 27.1906C52.8056 27.605 52.8056 27.7293 53.0736 28.1437L57.9804 35.1467C58.1247 35.1467 58.269 35.4368 58.537 35.7062ZM35.6113 25.9681H38.745C38.8894 25.9681 39.1574 26.1132 39.1574 25.6988C39.3017 24.1863 38.209 22.5495 36.704 22.2801C34.3743 21.5964 32.2096 23.1089 31.9209 25.5745C31.9209 25.9889 31.9209 26.1132 32.3333 26.1132C33.426 25.9681 34.5186 25.9681 35.6113 25.9681ZM41.8994 32.1425V34.608C41.8994 34.8774 41.7551 35.0224 41.4871 35.0224C38.6213 36.1205 35.6113 36.3899 32.6219 35.2918C30.2922 34.3387 28.9315 32.4118 28.5192 29.9462C28.1069 27.3356 28.2512 24.87 29.7562 22.5495C31.1169 20.2082 33.4466 19.4002 36.0237 19.5245C38.477 19.5245 40.3944 20.4776 41.7551 22.5495C42.5797 23.9169 42.7034 25.2844 42.7034 26.7969C42.7034 28.5788 42.7034 28.5788 40.9304 28.5788H32.6013C32.0653 28.5788 31.9209 28.7238 32.0653 29.2625C32.6013 32.4118 34.5186 33.7793 37.7967 33.3856C39.0337 33.2406 40.2501 32.9712 41.3427 32.4325C41.4871 32.2668 41.6108 32.1425 41.8994 32.1425Z" fill="white"/>
<path fill-rule="evenodd" clip-rule="evenodd" d="M92.6586 27.6052V35.0019C92.6586 35.4163 92.5143 35.5406 92.1226 35.5406H89.7929C89.5249 35.5406 89.2569 35.5406 89.2569 35.1262V20.0427C89.2569 19.6283 89.4012 19.6283 89.7929 19.6283H92.1226C92.6586 19.6283 92.6586 19.7733 92.6586 20.167V27.6052ZM27.1596 24.4558V35.0226C27.1596 35.5613 27.0153 35.7064 26.4792 35.7064H24.4382C23.7578 35.7064 23.6135 35.5613 23.6135 35.0226V16.4997V13.8891C23.6135 13.3504 23.7578 13.2053 24.2939 13.2053H26.4792C27.0153 13.2053 27.1596 13.3504 27.1596 13.8891C27.0153 17.4735 27.1596 20.8921 27.1596 24.4558Z" fill="white"/>
<path fill-rule="evenodd" clip-rule="evenodd" d="M91.0083 17.3281C89.7713 17.3281 89.091 16.6444 88.9673 15.5463C88.9673 14.3031 89.6476 13.6194 90.8846 13.6194C92.1216 13.6194 92.802 14.3031 92.802 15.5463C92.9257 16.6444 92.2453 17.3281 91.0083 17.3281Z" fill="white"/>
</svg>
