<svg width="119" height="56" viewBox="0 0 119 56" fill="none" xmlns="http://www.w3.org/2000/svg">
<g clip-path="url(#clip0_1_2449)">
<path d="M57.0925 27.0759V37.9226H53.8075V11.1426H62.5252C64.7393 11.1426 66.6178 11.9164 68.1667 13.461C69.7409 15.0066 70.5271 16.8895 70.5271 19.1077C70.5271 21.378 69.7409 23.2732 68.1667 24.7933C66.6432 26.3143 64.7608 27.0738 62.5252 27.0738H57.0925V27.0759ZM57.0925 14.4341V23.7843H62.5955C63.9054 23.7843 64.989 23.3223 65.8473 22.3992C66.728 21.4782 67.1679 20.3793 67.1679 19.1077C67.1679 17.8626 66.728 16.777 65.8473 15.853C64.989 14.9064 63.9054 14.4321 62.5955 14.4321H57.0925" fill="white"/>
<path d="M78.0997 18.9973C80.5303 18.9973 82.4459 19.6761 83.8524 21.0356C85.2589 22.3952 85.9582 24.2587 85.9582 26.6271V37.9226H82.8156V35.3794H82.6722C81.3155 37.4729 79.5062 38.5196 77.2434 38.5196C75.3151 38.5196 73.697 37.9226 72.4027 36.7256C71.1025 35.5276 70.4539 34.0331 70.4539 32.235C70.4539 30.3409 71.1367 28.8341 72.507 27.7127C73.8764 26.5903 75.7052 26.0281 77.9905 26.0281C79.9432 26.0281 81.5515 26.4033 82.8136 27.1495V26.3634C82.8136 25.1674 82.3611 24.1524 81.4559 23.3172C80.5489 22.48 79.4926 22.064 78.2773 22.064C76.4416 22.064 74.9903 22.8736 73.9194 24.4968L71.0235 22.5873C72.6221 20.1943 74.9776 18.9973 78.0997 18.9973ZM73.8472 32.3117C73.8472 33.2102 74.21 33.9575 74.9376 34.5565C75.6653 35.1535 76.5138 35.454 77.4911 35.454C78.8742 35.454 80.1031 34.9163 81.1867 33.846C82.2713 32.7717 82.8136 31.5154 82.8136 30.07C81.7885 29.2205 80.3596 28.7983 78.526 28.7983C77.1927 28.7983 76.0788 29.1357 75.1873 29.8083C74.2949 30.4819 73.8472 31.314 73.8472 32.3117Z" fill="white"/>
<mask id="mask0_1_2449" style="mask-type:luminance" maskUnits="userSpaceOnUse" x="86" y="19" width="19" height="28">
<path d="M86.4117 19.4675H104V46.0002H86.4117V19.4675Z" fill="white"/>
</mask>
<g mask="url(#mask0_1_2449)">
<path d="M104 19.5952L93.0295 46.0001H89.6372L93.7103 36.7613L86.4937 19.5952H90.0683L95.2836 32.7614H95.3538L100.427 19.5952" fill="white"/>
</g>
<path d="M43.812 24.7379C43.812 23.6544 43.7242 22.6087 43.5594 21.6079H29.6976V27.5347H37.637C37.2966 29.4667 36.2657 31.1104 34.7022 32.2103V36.059H39.4405C42.2144 33.3798 43.812 29.4197 43.812 24.7379Z" fill="#4285F4"/>
<path d="M29.6977 39.776C33.6644 39.776 37.0041 38.4123 39.4395 36.0592L34.7022 32.2105C33.3835 33.1408 31.6845 33.6846 29.6977 33.6846C25.8645 33.6846 22.6107 30.9788 21.4461 27.3325H16.5655V31.2957C18.9843 36.3239 23.9557 39.776 29.6977 39.776Z" fill="#34A853"/>
<path d="M21.4461 27.3325C21.1487 26.4033 20.9858 25.4107 20.9858 24.3865C20.9858 23.3632 21.1487 22.3717 21.4461 21.4415V17.4773H16.5654C15.5657 19.5555 15 21.9014 15 24.3865C15 26.8725 15.5657 29.2205 16.5654 31.2956" fill="#FABB05"/>
<path d="M29.6977 15.0904C31.8639 15.0904 33.8059 15.8703 35.3372 17.3985V17.4006L39.5322 13.0081C36.9836 10.5251 33.6625 9 29.6977 9C23.9557 9 18.9843 12.45 16.5655 17.4772L21.4461 21.4414C22.6107 17.7952 25.8645 15.0904 29.6977 15.0904Z" fill="#E94235"/>
</g>
<defs>
<clipPath id="clip0_1_2449">
<rect width="89" height="37" fill="white" transform="translate(15 9)"/>
</clipPath>
</defs>
</svg>
