<svg width="119" height="56" viewBox="0 0 119 56" fill="none" xmlns="http://www.w3.org/2000/svg">
<g clip-path="url(#clip0_1_2533)">
<path d="M43.626 19.0593V36.7645C43.626 38.3315 43.6617 39.2797 43.7332 40.1908H43.6617C43.2861 39.1473 42.8433 38.2328 42.1828 37.0422L31.9176 19.0593H27.2261V44.94H30.8814V27.2336C30.8814 25.6661 30.8456 24.7185 30.7747 23.8068H30.85C31.2251 24.8504 31.6679 25.7643 32.329 26.9542L42.5909 44.94H47.2329V19.0593H43.626Z" fill="white"/>
<path d="M85.3242 27.7211C82.2992 27.7211 80.1393 29.1484 79.0476 31.2613C79.0476 26.2681 80.7526 21.9217 84.8061 21.9217C87.3823 21.9217 88.4047 23.4337 88.9509 25.9129L92.703 25.1471C91.823 20.8669 89.1538 18.7866 84.8325 18.7866C79.4029 18.7866 75.3406 23.0393 75.3406 32.5707C75.3406 41.0317 78.728 45.2137 84.5646 45.2137C89.3876 45.2137 93 41.8542 93 36.3185C93 31.9934 90.7395 27.7211 85.3242 27.7211ZM84.574 42.0865C81.5809 42.0865 79.5085 39.2813 79.1499 35.5566C80.059 32.3794 82.0748 30.7967 84.4585 30.7967C87.5225 30.7967 89.2512 33.1049 89.2512 36.3864C89.2512 39.9086 87.28 42.0865 84.574 42.0865Z" fill="white"/>
<path d="M58.7509 41.5872C60.6611 40.2407 63.3995 38.0039 64.6145 36.7623C65.9955 35.353 69.9269 31.7304 69.9269 26.566C69.9269 21.2277 66.5169 18.7844 61.9052 18.7844C56.315 18.7867 53.5545 22.2965 53.5545 26.3119C53.5537 27.0011 53.6378 27.6878 53.8048 28.3557L57.635 28.7316C57.4733 28.0018 57.3894 27.2564 57.3847 26.5082C57.3847 23.5011 59.3356 22.062 61.7781 22.062C64.1596 22.062 65.9224 23.4231 65.9224 26.6962C65.9224 30.0226 64.3274 32.2897 61.8986 34.7701C59.3592 37.362 55.3002 40.4545 53.345 41.8767V44.94H70.2118V41.5872H58.7509Z" fill="white"/>
<path d="M47.46 51.6467V55H27V51.6467H47.46Z" fill="white"/>
<path d="M47.46 9V12.3533H27V9H47.46Z" fill="white"/>
<path d="M43.626 19.0593V36.7645C43.626 38.3315 43.6617 39.2797 43.7332 40.1908H43.6617C43.2861 39.1473 42.8433 38.2328 42.1828 37.0422L31.9176 19.0593H27.2261V44.94H30.8814V27.2336C30.8814 25.6661 30.8456 24.7185 30.7747 23.8068H30.85C31.2251 24.8504 31.6679 25.7643 32.329 26.9542L42.5909 44.94H47.2329V19.0593H43.626Z" fill="white"/>
</g>
<defs>
<clipPath id="clip0_1_2533">
<rect width="66" height="46" fill="white" transform="translate(27 9)"/>
</clipPath>
</defs>
</svg>
