<svg width="119" height="56" viewBox="0 0 119 56" fill="none" xmlns="http://www.w3.org/2000/svg">
<mask id="mask0_1_2483" style="mask-type:luminance" maskUnits="userSpaceOnUse" x="29" y="4" width="61" height="47">
<path d="M89.546 4.375H29.75V50.8882H89.546V4.375Z" fill="white"/>
</mask>
<g mask="url(#mask0_1_2483)">
<path d="M40.6321 50.6311V47.5508C40.6834 46.524 39.9649 45.6513 38.9383 45.5999C38.8357 45.5999 38.7844 45.5999 38.6817 45.5999C38.0144 45.5486 37.3472 45.908 36.9366 46.4727C36.5773 45.908 35.9614 45.5486 35.2941 45.5999C34.7295 45.5486 34.1649 45.8566 33.857 46.3187V45.7026H32.8304V50.6311H33.9083V47.9102C33.8056 47.2941 34.2676 46.678 34.8835 46.6267C34.9349 46.6267 35.0375 46.6267 35.0888 46.6267C35.8074 46.6267 36.1667 47.0888 36.1667 47.9102V50.6311H37.2445V47.9102C37.1419 47.2941 37.6038 46.678 38.2198 46.6267C38.271 46.6267 38.3738 46.6267 38.425 46.6267C39.1436 46.6267 39.5029 47.0888 39.5029 47.9102V50.6311H40.6321ZM56.5949 45.7539H54.8497V44.2651H53.7719V45.7539H52.7966V46.7294H53.7719V48.9883C53.7719 50.1178 54.2338 50.7852 55.4656 50.7852C55.9276 50.7852 56.3895 50.6311 56.8001 50.4258L56.4922 49.5017C56.1842 49.6557 55.8763 49.7584 55.5683 49.7584C55.055 49.7584 54.8497 49.4503 54.8497 48.9369V46.678H56.5949V45.7539ZM65.6799 45.5999C65.1664 45.5999 64.6528 45.8566 64.3968 46.3187V45.7026H63.3183V50.6311H64.3968V47.8588C64.3968 47.0374 64.7555 46.5753 65.4231 46.5753C65.6286 46.5753 65.8853 46.6267 66.09 46.678L66.3982 45.6512C66.1928 45.6512 65.9367 45.5999 65.6799 45.5999ZM51.9241 46.1133C51.3081 45.7539 50.6409 45.5999 49.9223 45.5999C48.6905 45.5999 47.8692 46.216 47.8692 47.1915C47.8692 48.0129 48.4852 48.4749 49.563 48.6289L50.0763 48.6802C50.6409 48.783 50.9489 48.937 50.9489 49.1937C50.9489 49.553 50.5382 49.8097 49.8197 49.8097C49.2551 49.8097 48.6391 49.6557 48.1772 49.2964L47.6639 50.1178C48.2798 50.5285 49.0497 50.7852 49.7683 50.7338C51.2055 50.7338 52.0267 50.0664 52.0267 49.1423C52.0267 48.2182 51.3595 47.8075 50.333 47.6535L49.8197 47.6022C49.3577 47.5508 48.9985 47.4481 48.9985 47.1401C48.9985 46.8321 49.3577 46.5753 49.9223 46.5753C50.4869 46.5753 51.0002 46.7294 51.4621 46.986L51.9241 46.1133ZM80.5136 45.5999C80 45.5999 79.4865 45.8566 79.2304 46.3187V45.7026H78.152V50.6311H79.2304V47.8588C79.2304 47.0374 79.5892 46.5753 80.2568 46.5753C80.4622 46.5753 80.7183 46.6267 80.9237 46.678L81.2318 45.6512C81.0264 45.6512 80.7696 45.5999 80.5136 45.5999ZM66.7577 48.1668C66.7063 49.553 67.784 50.6825 69.1185 50.7338C69.2213 50.7338 69.2726 50.7338 69.3753 50.7338C69.9909 50.7852 70.6585 50.5798 71.1207 50.1691L70.6071 49.2964C70.2476 49.553 69.7861 49.7071 69.324 49.7584C68.4516 49.7071 67.8354 48.937 67.8867 48.0642C67.9381 47.2941 68.5544 46.678 69.324 46.6267C69.7861 46.6267 70.2476 46.7807 70.6071 47.0887L71.1207 46.216C70.6071 45.8053 69.9909 45.5999 69.3753 45.6512C67.9895 45.5486 66.8604 46.6267 66.7577 47.9615C66.7577 48.0129 66.7577 48.0642 66.7577 48.1668ZM76.7661 48.1668V45.7026H75.6884V46.3187C75.3289 45.8566 74.7647 45.5999 74.1484 45.5999C72.7112 45.5999 71.5821 46.7294 71.5821 48.1668C71.5821 49.6044 72.7112 50.7338 74.1484 50.7338C74.7647 50.7338 75.3289 50.4771 75.6884 50.0151V50.6311H76.7661V48.1668ZM72.7626 48.1668C72.8139 47.3454 73.5329 46.7294 74.3539 46.7807C75.1755 46.8321 75.7911 47.5508 75.7397 48.3722C75.6884 49.1423 75.0728 49.7584 74.2512 49.7584C73.4302 49.7584 72.7626 49.1423 72.7626 48.3209C72.7626 48.2695 72.7626 48.2182 72.7626 48.1668ZM59.8797 45.5999C58.4426 45.5999 57.3134 46.7807 57.3648 48.2182C57.416 49.6557 58.5453 50.7852 59.9824 50.7338C60.7007 50.7852 61.471 50.5285 62.0352 50.0664L61.5223 49.2964C61.1115 49.6044 60.5987 49.8097 60.0851 49.8097C59.3662 49.861 58.6993 49.3477 58.5966 48.6289H62.2406C62.2406 48.4749 62.2406 48.3722 62.2406 48.2182C62.2406 46.6267 61.2656 45.5999 59.8797 45.5999ZM59.8797 46.5753C60.5473 46.5753 61.1115 47.0888 61.1115 47.7561H58.5453C58.5966 47.0888 59.2125 46.524 59.8797 46.5753ZM86.6212 48.1668V43.7517H85.5948V46.3187C85.2353 45.8566 84.6704 45.5999 84.0549 45.5999C82.6177 45.5999 81.4886 46.7294 81.4886 48.1668C81.4886 49.6044 82.6177 50.7338 84.0549 50.7338C84.6704 50.7338 85.2353 50.4771 85.5948 50.0151V50.6311H86.6212V48.1668ZM88.4179 49.9124C88.4692 49.9124 88.5712 49.9124 88.6226 49.9637C88.674 49.9637 88.7253 50.0151 88.7767 50.0664C88.828 50.1178 88.8794 50.1691 88.8794 50.2204C88.9307 50.3231 88.9307 50.4771 88.8794 50.5798C88.828 50.6311 88.828 50.6825 88.7767 50.7338C88.7253 50.7852 88.674 50.8365 88.6226 50.8365C88.5712 50.8879 88.5206 50.8879 88.4179 50.8879C88.2125 50.8879 88.0584 50.7852 87.9557 50.5798C87.9043 50.4771 87.9043 50.3231 87.9557 50.2204C88.0071 50.1691 88.0071 50.1178 88.0584 50.0664C88.1098 50.0151 88.1611 49.9637 88.2125 49.9637C88.3152 49.9124 88.3665 49.9124 88.4179 49.9124ZM88.4179 50.7852C88.4692 50.7852 88.5206 50.7852 88.5713 50.7338C88.6226 50.7338 88.674 50.6825 88.674 50.6311C88.828 50.4771 88.828 50.2717 88.674 50.1178C88.6226 50.0664 88.6226 50.0664 88.5713 50.0151C88.5206 50.0151 88.4692 49.9637 88.4179 49.9637C88.3665 49.9637 88.3152 49.9637 88.2638 50.0151C88.2125 50.0151 88.1611 50.0664 88.1611 50.1178C88.007 50.2717 88.007 50.4771 88.1611 50.6311C88.2125 50.6825 88.2638 50.6825 88.2638 50.7338C88.3152 50.7852 88.3665 50.7852 88.4179 50.7852ZM88.4692 50.1691C88.5206 50.1691 88.5712 50.1691 88.6226 50.2204C88.674 50.2717 88.674 50.2717 88.674 50.3231C88.674 50.3744 88.674 50.3744 88.6226 50.4258C88.5712 50.4771 88.5712 50.4771 88.5206 50.4771L88.674 50.6311H88.5713L88.4179 50.4771H88.3665V50.6311H88.2638V50.1691H88.4692ZM88.3665 50.2717V50.3744H88.4692H88.5206V50.3231V50.2717H88.4692H88.3665ZM82.7204 48.1668C82.7717 47.3454 83.49 46.7294 84.3117 46.7807C85.1326 46.8321 85.7489 47.5508 85.6975 48.3722C85.6462 49.1423 85.0299 49.7584 84.209 49.7584C83.3873 49.7584 82.7204 49.1423 82.7204 48.3209C82.669 48.2695 82.7204 48.2182 82.7204 48.1668ZM46.6374 48.1668V45.7026H45.5595V46.3187C45.2002 45.8566 44.6357 45.5999 44.0197 45.5999C42.5825 45.5999 41.4534 46.7294 41.4534 48.1668C41.4534 49.6044 42.5825 50.7338 44.0197 50.7338C44.6357 50.7338 45.2002 50.4771 45.5595 50.0151V50.6311H46.6374V48.1668ZM42.6852 48.1668C42.7365 47.3454 43.4551 46.7294 44.2763 46.7807C45.0976 46.8321 45.7135 47.5508 45.6622 48.3722C45.6108 49.1423 44.9949 49.7584 44.1737 49.7584C43.3524 49.7584 42.6852 49.1423 42.6852 48.3209C42.6852 48.2695 42.6852 48.2182 42.6852 48.1668Z" fill="white"/>
<path d="M67.7323 8.32812H51.564V37.3861H67.7323V8.32812Z" fill="#FF5F00"/>
<path d="M52.5903 22.8562C52.5903 17.2089 55.208 11.8183 59.6737 8.32726C51.6151 2.01258 40.0152 3.39867 33.702 11.4589C27.3888 19.5192 28.7746 31.0705 36.8329 37.3851C43.5568 42.6731 52.9497 42.6731 59.6737 37.3851C55.208 33.8941 52.5903 28.5548 52.5903 22.8562Z" fill="#EB001B"/>
<path d="M89.5467 22.8572C89.5467 33.0736 81.2836 41.3392 71.069 41.3392C66.9114 41.3392 62.9079 39.953 59.6747 37.3861C67.6817 31.0714 69.0676 19.4688 62.7546 11.4599C61.8302 10.2791 60.8038 9.25235 59.6234 8.32826C67.6304 2.01351 79.2815 3.39968 85.5945 11.4599C88.1608 14.6943 89.5467 18.6987 89.5467 22.8572Z" fill="#F79E1B"/>
<path d="M87.8015 34.3056V33.6896H88.0576V33.5869H87.442V33.6896H87.6988V34.3056H87.8015ZM88.9819 34.3056V33.5869H88.7765L88.5711 34.1003L88.3657 33.5869H88.2116V34.3056H88.3657V33.7923L88.5711 34.2543H88.7252L88.9306 33.7923V34.357L88.9819 34.3056Z" fill="#F79E1B"/>
</g>
</svg>
