<svg width="119" height="56" viewBox="0 0 119 56" fill="none" xmlns="http://www.w3.org/2000/svg">
<g clip-path="url(#clip0_1_2493)">
<path d="M89.7667 12.1569C89.7446 12.1127 89.7219 12.0686 89.7219 12.0466C89.5195 11.4068 89.2488 10.7891 88.9339 10.2155C85.4667 3.99413 75.5822 6.28852 66.0126 12.7305C65.7426 12.9069 65.63 13.2599 65.7647 13.5688L68.2417 17.3854C68.4668 17.7605 68.9619 17.8928 69.3451 17.6722C69.39 17.6501 69.4128 17.6281 69.4577 17.606C76.7754 11.8921 85.2409 8.86968 88.7986 11.5391C88.9339 11.6274 89.0237 11.7818 89.0686 11.9363C89.474 13.0393 89.7219 14.2085 89.7895 15.3778C89.7895 15.3998 89.7895 15.3998 89.7895 15.422C89.7895 15.5543 89.7895 15.7087 89.7895 15.8411C89.7895 15.9293 89.7895 16.0397 89.7895 16.1279C89.7895 16.172 89.7895 16.2382 89.7895 16.3044C89.407 24.9966 77.2706 27.9969 69.8631 20.8491C70.2684 21.2682 70.6959 21.6432 71.1461 21.9963C70.4935 21.4888 69.8852 20.9373 69.3224 20.3416L69.2775 20.2755C65.4947 15.6205 65.0893 13.3041 62.7256 10.9214C53.8992 2.51601 41.6505 6.00169 33.6349 15.0469C32.5991 16.172 31.6535 17.3854 30.8429 18.665C30.6853 18.8856 30.5502 19.1283 30.3926 19.3709L30.4827 19.2606C30.3926 19.415 30.3025 19.5695 30.235 19.7019C30.0999 19.9225 29.9873 20.1431 29.8747 20.3858C28.5013 23.1214 28.096 25.857 28.9741 28.1735C31.2932 34.3065 41.583 35.3434 51.9628 30.4899C54.5071 29.2985 55.7229 28.6588 57.7268 27.0925C58.4023 26.563 58.4248 24.6215 57.9295 23.9376L56.3309 21.9963C56.0607 21.5771 55.3176 21.533 54.9349 21.8639C53.9892 22.6581 53.764 22.8787 53.021 23.4743C43.9471 30.8208 34.1752 33.2476 31.1807 28.9015C31.1356 28.8353 31.0906 28.7691 31.0455 28.6808C30.28 27.3351 29.8522 25.8128 29.8297 24.2686C29.8522 22.2389 30.7753 19.8563 31.9912 17.7825C32.0363 17.7164 32.0813 17.6501 32.1263 17.606C34.7832 15.1572 40.1419 11.3627 47.1219 12.223C54.327 13.1055 55.4978 22.1507 66.17 27.4895C73.668 31.24 84.8583 29.5192 89.4291 23.8935L89.3393 24.0038C91.7935 21.0035 92.424 17.0103 89.7667 12.1569ZM29.537 21.8418C29.5595 21.6874 29.582 21.555 29.6271 21.4006C29.582 21.555 29.5595 21.7094 29.537 21.8418Z" fill="white"/>
<path d="M37.5209 38.2733C37.4608 38.2485 37.3987 38.2292 37.3352 38.2158C36.8329 38.0854 35.588 38.0433 35.1862 38.375L35.1643 38.3949C35.0973 38.4572 35.0431 38.5324 35.0049 38.616C33.8377 40.1843 32.7586 41.8178 31.7726 43.5088L28.7652 38.6271L28.7543 38.6027C28.7144 38.5184 28.6579 38.4431 28.5883 38.3816L28.5686 38.3639C28.2192 38.0699 27.1731 38.0787 26.6031 38.1782C26.4679 38.1926 26.335 38.2246 26.2078 38.2733C26.0971 38.3206 26.0023 38.3995 25.9352 38.5005C25.8681 38.6013 25.8316 38.7199 25.83 38.8415V49.1468C25.83 49.3523 25.9239 49.7127 26.5529 49.81C26.7621 49.8386 26.973 49.8519 27.184 49.8498C27.6208 49.8498 28.5403 49.8498 28.5403 49.1468V43.2104C28.7368 43.5243 29.1103 44.1389 29.5231 44.9105C30.0967 45.9851 30.4818 46.6875 30.6784 47.0176L30.7942 47.2387C30.8973 47.3971 31.0284 47.535 31.1807 47.6455C31.5095 47.8424 31.9004 47.9042 32.2727 47.8179C32.3648 47.7929 32.451 47.7493 32.5261 47.6897C32.6931 47.5745 32.8406 47.4326 32.9628 47.2697L33.2249 46.8032C33.3516 46.5806 33.6487 46.0234 34.116 45.1316C34.5834 44.2399 34.9387 43.5907 35.1818 43.1838C35.1818 43.1838 35.1818 44.3003 35.1818 44.3623V49.16C35.1818 49.8631 36.0969 49.8631 36.5359 49.8631C36.9749 49.8631 37.89 49.8631 37.89 49.16V38.8503C37.8908 38.7282 37.8563 38.6085 37.7907 38.5059C37.7251 38.4033 37.6313 38.3225 37.5209 38.2733Z" fill="white"/>
<path d="M40.9039 42.6843C40.0208 42.6843 39.9 42.8402 39.9 43.0091V49.5407C39.9 49.7074 40.0208 49.8633 40.9039 49.8633C41.7871 49.8633 41.91 49.7074 41.91 49.5407V43.0048C41.91 42.8402 41.7804 42.6843 40.9039 42.6843Z" fill="white"/>
<path d="M41.239 49.8631C40.807 49.8631 39.9 49.8631 39.9 49.1747V42.7198C39.9 42.0315 40.8049 42.0315 41.239 42.0315C41.673 42.0315 42.58 42.0315 42.58 42.7198V49.1618C42.58 49.8631 41.6752 49.8631 41.239 49.8631ZM40.6364 49.0773C41.0363 49.1408 41.4437 49.1408 41.8436 49.0773V42.8216C41.4437 42.7581 41.0363 42.7581 40.6364 42.8216V49.0773Z" fill="white"/>
<path d="M50.8039 38.7683H45.4401C44.8775 38.7885 44.59 38.8444 44.59 39.0952V49.5339C44.59 49.7041 44.7017 49.863 45.5146 49.863C46.3275 49.863 46.4413 49.7041 46.4413 49.5339V45.2214H50.2743C50.5701 45.2214 50.7604 44.8587 50.7604 44.2966C50.7604 43.7346 50.5701 43.3697 50.2743 43.3697H46.4413V40.6267H50.8039C51.0997 40.6267 51.29 40.264 51.29 39.702C51.29 39.14 51.0997 38.7683 50.8039 38.7683Z" fill="white"/>
<path d="M45.3072 49.863C44.8582 49.863 43.92 49.863 43.92 49.1974V39.4298C43.92 38.8018 44.6989 38.783 45.2129 38.7683H51.0488C51.4685 38.7683 51.96 39.0886 51.96 39.9929C51.96 40.8973 51.4685 41.2154 51.0488 41.2154H46.692V43.0701H50.4696C50.8894 43.0701 51.381 43.3904 51.381 44.2947C51.381 45.1991 50.8894 45.5172 50.4696 45.5172H46.692V49.1911C46.692 49.863 45.7561 49.863 45.3072 49.863ZM44.6855 49.1032C45.0966 49.1645 45.5156 49.1645 45.9267 49.1032V44.8014H50.4696C50.51 44.7888 50.6156 44.6381 50.6156 44.2926C50.6156 43.9473 50.5101 43.7965 50.4719 43.7819H45.9267V40.4995H51.0443C51.0689 40.4995 51.1901 40.3634 51.1901 39.9908C51.1901 39.6182 51.0689 39.4884 51.0465 39.4801H45.2241C45.0435 39.4812 44.8633 39.4966 44.6855 39.5261V49.1032Z" fill="white"/>
<path d="M65.7761 38.7683C64.9621 38.7683 64.8508 38.9405 64.8508 39.1083V45.9942L60.4657 38.9629L60.4456 38.9361C60.2386 38.7124 59.0939 38.7504 58.8336 38.8689C58.7849 38.8837 58.7418 38.9148 58.7106 38.9579C58.6794 39.001 58.6617 39.0536 58.66 39.1083V49.5109C58.66 49.6205 58.66 49.851 59.5837 49.851C60.5072 49.851 60.5092 49.6273 60.5092 49.5109V42.6385L64.8964 49.6541C64.9996 49.8084 65.3795 49.8621 65.7493 49.8621C65.9932 49.8685 66.2371 49.8414 66.4749 49.7816C66.6605 49.7189 66.7 49.6026 66.7 49.5176V39.1151C66.7 38.9405 66.5908 38.7683 65.7761 38.7683Z" fill="white"/>
<path d="M65.9771 49.8629C65.1141 49.8629 64.8682 49.6661 64.753 49.5196L60.7289 43.9107V49.1848C60.7289 49.8587 59.8044 49.8587 59.3585 49.8587C58.9127 49.8587 57.99 49.8587 57.99 49.1848V39.4527C57.9912 39.3309 58.0321 39.2123 58.107 39.1131C58.182 39.0139 58.2875 38.9388 58.4092 38.8981C58.6931 38.7872 60.1373 38.6511 60.5494 39.0383L60.6184 39.1179L64.631 44.7143V39.4443C64.631 38.7683 65.5911 38.7683 66.0012 38.7683C66.4119 38.7683 67.37 38.7683 67.37 39.4443V49.1764C67.3653 49.3127 67.3137 49.4439 67.2226 49.55C67.1315 49.6561 67.0069 49.7314 66.8668 49.7646C66.5754 49.8325 66.2765 49.8655 65.9771 49.8629ZM65.3493 49.0781C65.5523 49.1362 65.7653 49.1603 65.9771 49.1492C66.1921 49.1527 66.4065 49.1358 66.6182 49.099V39.5322C66.2122 39.4651 65.7975 39.4651 65.3915 39.5322V47.0437L60.0194 39.5469C59.5993 39.4713 59.1681 39.467 58.7464 39.5343V49.0885C59.1521 49.1557 59.5672 49.1557 59.9729 49.0885V41.5791L65.3493 49.0781Z" fill="white"/>
<path d="M70.385 38.7683C69.5026 38.7683 69.38 38.9272 69.38 39.0996V49.5341C69.38 49.7041 69.5026 49.863 70.385 49.863C71.2674 49.863 71.39 49.7041 71.39 49.5341V39.0996C71.388 38.9272 71.2781 38.7683 70.385 38.7683Z" fill="white"/>
<path d="M70.72 49.863C70.2879 49.863 69.38 49.863 69.38 49.1976V39.4337C69.38 38.7683 70.2858 38.7683 70.72 38.7683C71.1542 38.7683 72.06 38.7683 72.06 39.4337V49.1893C72.058 49.863 71.1522 49.863 70.72 49.863ZM70.115 49.1034C70.5157 49.1648 70.9244 49.1648 71.325 49.1034V39.5279C70.9244 39.4665 70.5157 39.4665 70.115 39.5279V49.1034Z" fill="white"/>
<path d="M54.975 38.7683C54.0817 38.7683 53.97 38.9272 53.97 39.0996V49.5341C53.97 49.7041 54.0906 49.863 54.975 49.863C55.8594 49.863 55.98 49.7041 55.98 49.5341V39.0996C55.98 38.9272 55.8572 38.7683 54.975 38.7683Z" fill="white"/>
<path d="M54.64 49.863C54.2078 49.863 53.3 49.863 53.3 49.1976V39.4337C53.3 38.7683 54.2056 38.7683 54.64 38.7683C55.0745 38.7683 55.98 38.7683 55.98 39.4337V49.1893C55.98 49.863 55.0745 49.863 54.64 49.863ZM54.0349 49.1034C54.4358 49.1648 54.8443 49.1648 55.2452 49.1034V39.5279C54.8443 39.4665 54.4358 39.4665 54.0349 39.5279V49.1034Z" fill="white"/>
<path d="M81.8071 38.7683H74.3728C74.2173 38.7683 74.0699 38.8892 74.0699 39.7692C74.0699 40.6491 74.2173 40.7701 74.3728 40.7701H77.1761V49.5339C77.1761 49.7041 77.2866 49.863 78.0913 49.863C78.8953 49.863 79.0058 49.7041 79.0058 49.5339V40.7701H81.8071C81.9646 40.7701 82.1099 40.6491 82.1099 39.7692C82.1099 38.8892 81.9646 38.7683 81.8071 38.7683Z" fill="white"/>
<path d="M78.0947 49.863C77.6552 49.863 76.736 49.863 76.736 49.1975V41.3531H74.0988C73.4 41.3531 73.4 40.4804 73.4 40.0618C73.4 39.6432 73.4 38.7683 74.0988 38.7683H82.0792C82.78 38.7683 82.78 39.6432 82.78 40.0618C82.78 40.4804 82.78 41.3531 82.0792 41.3531H79.4414V49.1891C79.4501 49.863 78.5342 49.863 78.0947 49.863ZM77.4857 49.1033C77.889 49.1647 78.2997 49.1647 78.7031 49.1033V40.6415H81.9934C82.0578 40.2574 82.0578 39.866 81.9934 39.482H74.202C74.1377 39.866 74.1377 40.2574 74.202 40.6415H77.4857V49.1033Z" fill="white"/>
<path d="M93.2621 38.8611C92.9003 38.7312 91.5302 38.6976 91.2729 39.029L88.8053 42.9717L86.3317 39.0335C86.0918 38.7066 84.731 38.7312 84.3686 38.8588C84.1635 38.9283 84.12 39.0469 84.12 39.1365V39.1902L87.8284 45.1255V49.4846C87.8284 49.5787 87.8284 49.863 88.81 49.863C89.7915 49.863 89.7915 49.5787 89.7915 49.4846V45.1255L93.5 39.1925V39.1365C93.5 39.0491 93.4585 38.9327 93.2621 38.8611Z" fill="white"/>
<path d="M89.1437 49.8631C88.8107 49.8631 87.7996 49.8631 87.7996 49.1531V45.1741L84.12 39.6224V39.4674C84.1227 39.3283 84.1729 39.194 84.2634 39.0857C84.3532 38.9773 84.4778 38.9009 84.6178 38.8684C84.9729 38.7532 86.5769 38.6318 86.9836 39.1574L86.999 39.1784L89.1437 42.3951L91.3084 39.1449C91.7412 38.6276 93.3559 38.7595 93.6896 38.8747C93.8249 38.91 93.9449 38.9868 94.032 39.0937C94.1184 39.2005 94.1666 39.3316 94.17 39.4674V39.6244L90.4904 45.1762V49.1552C90.4857 49.8631 89.4753 49.8631 89.1437 49.8631ZM88.538 49.084C88.936 49.1706 89.3493 49.1706 89.748 49.084V44.971L93.3626 39.526C92.9861 39.4486 92.0876 39.4716 91.884 39.5972L89.1504 43.7166L86.4034 39.6014C86.2003 39.4779 85.3213 39.4548 84.934 39.5302L88.538 44.9752V49.084Z" fill="white"/>
<path d="M41.3318 38.7683H40.4782C39.7888 38.7683 39.23 39.2008 39.23 39.7343V40.4128C39.23 40.9463 39.7888 41.3788 40.4782 41.3788H41.3318C42.0211 41.3788 42.58 40.9463 42.58 40.4128V39.7343C42.58 39.2008 42.0211 38.7683 41.3318 38.7683Z" fill="white"/>
</g>
<defs>
<clipPath id="clip0_1_2493">
<rect width="119" height="56" fill="white"/>
</clipPath>
</defs>
</svg>
