<svg width="119" height="56" viewBox="0 0 119 56" fill="none" xmlns="http://www.w3.org/2000/svg">
<g clip-path="url(#clip0_1_2515)">
<path d="M116.919 25.4586C115.619 24.6265 113.636 24.2104 111.037 24.2104H104.231L101.7 37.0447H92.8077L93.3896 34.1322H98.7585L99.4085 30.8676H94.0389L94.6208 27.9551H100.127L100.879 24.2104H89.6615L87.2673 36.3726H83.1633L85.592 24.2104H79.7438L77.3495 36.3726H73.3481L75.7079 24.2104H69.8597L67.329 37.0447H58.3685L58.9499 34.1322H64.3193L64.9692 30.8676H59.5997L60.1811 27.9551H65.7557L66.4397 24.2104H31.4873L29.5037 34.3883L25.5708 24.2104H19.4832L16.2 40.7894H22.0139L23.9975 30.3555L27.828 40.7894H48.6558L51.1865 27.9551H54.4355L51.9047 40.7894H106.659L108.232 32.692L110.797 40.7894H116.611L113.943 34.1643L114.559 34.0362C115.893 33.7802 116.953 33.2041 117.671 32.3079C118.39 31.4437 118.766 30.3235 118.766 28.9473C118.8 27.443 118.184 26.2908 116.919 25.4586ZM43.5941 37.0447H34.7022L35.2835 34.1322H40.8582L41.4738 30.8676H35.9675L36.5147 27.9871H45.4067L43.5941 37.0447ZM112.131 31.4437C111.55 31.8278 110.695 32.0199 109.532 32.0199H108.369L109.258 27.5711H110.113C111.071 27.5711 111.789 27.7311 112.268 28.0191C112.644 28.2432 113.089 28.6913 113.089 29.5554C113.089 30.6116 112.576 31.1557 112.131 31.4437Z" fill="white"/>
</g>
<defs>
<clipPath id="clip0_1_2515">
<rect width="119" height="56" fill="white"/>
</clipPath>
</defs>
</svg>
