<svg width="119" height="56" viewBox="0 0 119 56" fill="none" xmlns="http://www.w3.org/2000/svg">
<g clip-path="url(#clip0_1_2518)">
<path d="M25.2107 31.6789C25.1976 31.2219 24.9732 30.9868 24.5508 30.9737H22.2803C21.7391 30.9999 21.4619 31.3002 21.4487 31.8487V35.8836C21.4619 36.4451 21.7654 36.7324 22.3595 36.7586H24.432C24.6432 36.7586 24.8279 36.6802 24.9732 36.5235C25.1184 36.406 25.1976 36.2493 25.1976 36.0534V31.6789H25.2107ZM18.5446 31.1043C18.5578 30.0989 18.7821 29.3284 19.231 28.8061C19.4554 28.5841 19.7458 28.4013 20.1022 28.2446C20.4718 28.0878 20.8151 28.0095 21.1583 28.0095H25.3164C27.1513 28.0226 28.0885 29.015 28.1149 30.9868V37.0589C28.1017 37.764 27.8245 38.3648 27.2833 38.874C26.7552 39.4094 26.1216 39.6836 25.3824 39.6966H21.4487V44.0712H18.5446V31.1043Z" fill="white"/>
<path d="M33.3819 36.1579C33.3819 36.3277 33.461 36.4582 33.6194 36.5627C33.7514 36.6802 33.9363 36.7455 34.1475 36.7455H36.3784C36.88 36.7455 37.144 36.5496 37.1572 36.1579V35.3352C37.1572 34.8781 36.8932 34.6562 36.3519 34.6562H34.1343C33.8439 34.6562 33.6459 34.7084 33.5271 34.7998C33.4215 34.9043 33.3686 35.1132 33.3686 35.4266V36.1579H33.3819ZM37.1704 31.6006C37.1836 31.1565 36.9196 30.9477 36.3915 30.9607H30.5306V28.0095H37.1308C39.0581 28.0356 40.0349 28.9628 40.0613 30.7779V36.9675C40.048 37.751 39.7972 38.3908 39.3352 38.9132C38.8469 39.4486 38.2133 39.7097 37.4344 39.7097H33.4479C31.5074 39.6966 30.5173 38.8218 30.491 37.072V34.6823C30.5042 32.8541 31.4414 31.927 33.3159 31.9009H37.1836V31.6006" fill="white"/>
<path d="M48.2325 41.12C48.4569 41.1069 48.6681 41.0286 48.8265 40.8719C48.9849 40.7282 49.0641 40.5716 49.0641 40.4018V39.6966H45.3416C44.8532 39.6966 44.4704 39.6314 44.1799 39.5138C43.8763 39.3964 43.5728 39.2005 43.2559 38.9001C42.9655 38.5867 42.7543 38.2603 42.6223 37.9207C42.4903 37.6074 42.4243 37.2156 42.4243 36.7324V28.0095H45.3416V35.8053C45.3416 36.4321 45.6056 36.7455 46.1204 36.7455H48.1796C48.4304 36.7455 48.6417 36.6672 48.8133 36.5105C48.9849 36.3668 49.0641 36.2101 49.0641 36.0142V28.0095H51.955V40.898C51.9418 41.8513 51.691 42.6217 51.2158 43.1963C50.7274 43.7709 50.0673 44.0712 49.2225 44.0842H42.4243V41.12H48.2325Z" fill="white"/>
<path d="M54.2385 36.7455H59.4263C59.9015 36.7324 60.1523 36.5365 60.1655 36.184V35.9228C60.1655 35.8445 60.1392 35.7662 60.0995 35.6748C59.9807 35.4527 59.8355 35.3352 59.6771 35.3352H57.0898C56.3242 35.3221 55.6774 35.061 55.1229 34.5517C54.5685 34.0816 54.2913 33.5201 54.265 32.8411V30.6342C54.2913 28.9106 55.2418 28.0356 57.103 28.0095H63.1224V30.9737H58.0271C57.433 30.9737 57.1294 31.1565 57.1294 31.5222V31.8094C57.1294 32.1881 57.433 32.371 58.0535 32.371H60.6143C61.3007 32.384 61.8816 32.6452 62.37 33.1545C62.8584 33.6637 63.1092 34.2644 63.1356 34.9696V37.1242C63.1224 37.7249 62.832 38.3386 62.2908 38.9393C62.0268 39.2396 61.7496 39.4355 61.4856 39.553C61.2083 39.6575 60.8255 39.7097 60.3371 39.7097H54.2518V36.7455" fill="white"/>
<path d="M68.1125 36.1579C68.1125 36.3277 68.1916 36.4582 68.3496 36.5627C68.4819 36.6802 68.6536 36.7455 68.8778 36.7455H71.1221C71.6237 36.7455 71.8874 36.5496 71.9011 36.1579V35.3352C71.9011 34.8781 71.6366 34.6562 71.0955 34.6562H68.8778C68.5875 34.6562 68.3892 34.7084 68.2706 34.7998C68.165 34.9043 68.1125 35.1132 68.1125 35.4266V36.1579ZM71.9011 31.6006C71.914 31.1565 71.6503 30.9477 71.1084 30.9607H65.2478V28.0095H71.8479C73.7753 28.0356 74.7519 28.9628 74.7785 30.7779V36.9675C74.7656 37.751 74.5148 38.3908 74.0527 38.9132C73.564 39.4486 72.9302 39.7097 72.1519 39.7097H68.152C66.2114 39.6966 65.2213 38.8218 65.1949 37.072V34.6823C65.2082 32.8541 66.1453 31.927 68.0198 31.9009H71.9011V31.6006Z" fill="white"/>
<path d="M77.1542 26.3249C77.1679 25.5283 77.4711 24.8884 78.0525 24.4053C78.6195 23.9222 79.3589 23.661 80.2831 23.6479H82.1314V26.5077H81.0089C80.3887 26.5208 80.0847 26.808 80.0718 27.3826V28.0094H82.1314V30.9736H80.0718V39.7096H77.1542V26.3249Z" fill="white"/>
<path d="M90.4079 31.5483V31.483C90.4079 31.3263 90.3418 31.1957 90.2232 31.1043C90.091 31.0129 89.9192 30.9607 89.7216 30.9607H87.6886C87.4241 30.9607 87.2128 31.0391 87.0548 31.1827C86.8564 31.3133 86.7508 31.4961 86.7508 31.718V32.9064L90.4079 31.5483ZM86.804 35.74V35.9228C86.804 36.1579 86.8701 36.3537 86.9886 36.4843C87.0814 36.6541 87.1999 36.7455 87.3717 36.7455H93.3514V39.7097H86.9886C86.408 39.7097 85.9588 39.6575 85.6419 39.553C85.2992 39.4355 84.9822 39.2527 84.7048 38.9915C84.3879 38.6781 84.1637 38.3648 84.0581 38.0252C83.9395 37.6857 83.8734 37.2287 83.8734 36.6672L83.8468 30.7387C83.8734 28.9497 84.8242 28.0356 86.6854 28.0095H90.6192C92.4272 28.0356 93.3514 28.9889 93.378 30.8432V33.1806L86.804 35.74Z" fill="white"/>
<path d="M99.5423 39.7097C99.1068 39.7097 98.6972 39.6705 98.3278 39.5921C97.9448 39.5268 97.5625 39.357 97.1795 39.0567C96.7835 38.7172 96.5061 38.3254 96.348 37.8945C96.1892 37.4767 96.1102 36.9935 96.1102 36.4712V30.9475C96.0972 30.5036 96.1367 30.0987 96.2424 29.7592C96.3343 29.4197 96.5456 29.0802 96.8626 28.7538C97.219 28.4142 97.5754 28.1792 97.9585 28.0616C98.3278 27.9702 98.7375 27.918 99.1988 27.918H103.661V28.6101H99.3044C98.5391 28.6101 97.9319 28.7668 97.4827 29.0802C97.0343 29.4197 96.7964 30.0073 96.7964 30.843V36.3667C96.7964 36.7584 96.8625 37.1371 96.9811 37.5027C97.1004 37.8554 97.3117 38.1818 97.602 38.456C97.9189 38.6911 98.2359 38.8478 98.5391 38.9C98.856 38.9653 99.1988 39.0045 99.5689 39.0045H103.727V39.6966H99.5423" fill="white"/>
<path d="M115.145 32.5408H109.298C108.598 32.5538 108.044 32.7758 107.648 33.1806C107.238 33.5984 107.04 34.173 107.04 34.9042V36.6671C107.04 37.0067 107.08 37.32 107.146 37.6073C107.225 37.9077 107.397 38.1688 107.687 38.3909C108.189 38.8087 108.756 39.0046 109.364 39.0046H112.927C114.406 38.9915 115.159 38.2211 115.159 36.6802V32.5408H115.145ZM115.845 36.5235C115.845 36.9675 115.805 37.3592 115.752 37.6987C115.66 38.0774 115.462 38.43 115.172 38.7695C114.564 39.4094 113.799 39.7228 112.902 39.6967H109.416C108.506 39.6967 107.779 39.4355 107.212 38.9001C106.631 38.3778 106.34 37.6465 106.34 36.7063V34.9304C106.367 32.9194 107.383 31.8878 109.377 31.8486H115.172V31.0652C115.172 30.4253 114.987 29.8638 114.604 29.3806C114.367 29.0672 114.089 28.8583 113.772 28.7539C113.456 28.6755 113.086 28.6233 112.69 28.6233H106.367V27.9312H112.36C112.914 27.9312 113.403 27.9703 113.852 28.0487C114.076 28.0879 114.287 28.1793 114.485 28.3098C114.697 28.4274 114.881 28.6102 115.053 28.8453C115.594 29.5373 115.858 30.3209 115.845 31.2088V36.5235Z" fill="white"/>
<path d="M2.37423 27.5654C2.59866 27.4609 2.83623 27.3826 3.06066 27.3435C3.48307 25.3586 5.26512 23.8699 7.39038 23.8699C9.52887 23.8699 11.2977 25.3586 11.7202 27.3435C12.3802 27.4609 12.9214 27.7222 13.3306 28.1138C13.3438 27.7352 13.3306 27.3695 13.291 27.017C13.027 24.0136 10.4793 21.6631 7.37723 21.6631C4.18272 21.6631 1.58223 24.1703 1.45022 27.2912C1.437 27.5654 1.42377 27.8396 1.437 28.14C1.70102 27.918 2.00464 27.7222 2.37423 27.5654Z" fill="white"/>
<path d="M10.8487 28.0095H3.73371C3.3905 28.0095 3.03406 28.0878 2.67762 28.2446C2.32125 28.4013 2.03086 28.5841 1.80643 28.8061C1.3708 29.3284 1.13322 30.0989 1.12 31.1043V36.6019C1.13322 37.6074 1.35757 38.3778 1.80643 38.9001C2.044 39.1221 2.32125 39.3049 2.67762 39.4616C3.04728 39.6183 3.40364 39.6966 3.73371 39.6966H10.8487C12.6835 39.6836 13.6208 38.6781 13.6472 36.7063V30.9868C13.6208 29.015 12.6835 28.0226 10.8487 28.0095Z" fill="white"/>
</g>
<defs>
<clipPath id="clip0_1_2518">
<rect width="119" height="56" fill="white"/>
</clipPath>
</defs>
</svg>
