<svg width="119" height="56" viewBox="0 0 119 56" fill="none" xmlns="http://www.w3.org/2000/svg">
<g clip-path="url(#clip0_1_2512)">
<path fill-rule="evenodd" clip-rule="evenodd" d="M77.1825 20.5284C79.0188 20.5284 80.5072 19.0851 80.5072 17.3054C80.5072 15.5247 79.0188 14.0801 77.1825 14.0801C75.3484 14.0801 73.8607 15.5247 73.8607 17.3054C73.8607 19.0851 75.3484 20.5284 77.1825 20.5284ZM51.7198 22.2689C51.5697 22.6345 50.49 25.5934 47.8786 28.66V15.5476L40.9206 16.8816V40.6494H47.8786V33.3026C49.8938 36.2348 50.8889 40.6494 50.8889 40.6494H59.2232C58.3988 37.3246 54.7926 31.1941 54.7926 31.1941C58.0291 27.2133 59.4507 22.9716 59.6768 22.2689H51.7198ZM70.012 22.0208C63.7798 22.2148 60.6162 24.9274 60.6162 30.3195V40.6494H67.4153V32.2256C67.4153 28.9968 67.851 27.6128 71.8004 27.4808V22.1154C71.1357 21.9785 70.012 22.0208 70.012 22.0208ZM29.2513 24.8861C28.399 24.8317 26.4259 24.708 26.4259 22.9848C26.4259 20.9054 29.2666 20.9054 30.3321 20.9054C32.2056 20.9054 34.6319 21.4425 36.3646 21.9453C36.3646 21.9453 37.3312 22.2758 38.1538 22.6144L38.2302 22.6345V16.9395L38.1252 16.9094C36.0803 16.2153 33.7025 15.5476 29.2941 15.5476C21.6932 15.5476 19 19.8433 19 23.5233C19 25.6446 19.9373 30.6372 28.6423 31.2131C29.3802 31.2571 31.3387 31.3666 31.3387 33.1474C31.3387 34.6176 29.7353 35.4846 27.0385 35.4846C24.0831 35.4846 21.2163 34.7535 19.4751 34.0601V39.9255C22.0818 40.5884 25.0204 40.9197 28.4644 40.9197C35.8964 40.9197 39.225 36.8554 39.225 32.8272C39.225 28.2598 35.5003 25.2922 29.2513 24.8861ZM73.8121 40.6494H80.5562V22.2897H73.8121V40.6494ZM93.2549 16.7181V40.6494H100V15.5476L93.2549 16.7181ZM83.413 16.7181L90.1516 15.5476V40.6494H83.413V16.7181Z" fill="white"/>
</g>
<defs>
<clipPath id="clip0_1_2512">
<rect width="81" height="27" fill="white" transform="translate(19 14)"/>
</clipPath>
</defs>
</svg>
