<svg width="119" height="56" viewBox="0 0 119 56" fill="none" xmlns="http://www.w3.org/2000/svg">
<g clip-path="url(#clip0_1_2480)">
<path d="M71.7582 14.033C66.0069 14.033 60.8673 17.0923 60.8673 22.7447C60.8673 29.2268 69.9826 29.6745 69.9826 32.931C69.9826 34.3021 68.4515 35.5296 65.8364 35.5296C62.1251 35.5296 59.3512 33.8145 59.3512 33.8145L58.1643 39.5184C58.1643 39.5184 61.3598 40.9671 65.6022 40.9671C71.8902 40.9671 76.8381 37.7575 76.8381 32.0086C76.8381 25.159 67.6849 24.7245 67.6849 21.702C67.6849 20.6278 68.9417 19.4509 71.5494 19.4509C74.4915 19.4509 76.892 20.6983 76.892 20.6983L78.0535 15.1893C78.0535 15.1893 75.4417 14.033 71.7582 14.033ZM19.1393 14.4488L19 15.2803C19 15.2803 21.4196 15.7347 23.5988 16.6413C26.4047 17.6808 26.6047 18.286 27.0772 20.1655L32.2267 40.5383H39.1298L49.7644 14.4488H42.8772L36.0438 32.1872L33.2554 17.1512C32.9997 15.4304 31.7044 14.4488 30.1188 14.4488H19.1393ZM52.5338 14.4488L47.131 40.5382H53.6985L59.0823 14.4487H52.5338V14.4488ZM89.1629 14.4488C87.5792 14.4488 86.7402 15.3189 86.1244 16.8394L76.5026 40.5382H83.3898L84.7223 36.5884H93.1128L93.9231 40.5382H100L94.6985 14.4488H89.1629ZM90.0586 21.4973L92.1 31.2874H86.6308L90.0586 21.4973Z" fill="white"/>
</g>
<defs>
<clipPath id="clip0_1_2480">
<rect width="81" height="27" fill="white" transform="translate(19 14)"/>
</clipPath>
</defs>
</svg>
