<svg width="87" height="90" viewBox="0 0 87 90" fill="none" xmlns="http://www.w3.org/2000/svg">
<g clip-path="url(#clip0_1_6115)">
<g opacity="0.2">
<path d="M5.16563 7.12526C5.06621 7.02583 4.96721 7.02583 4.86778 7.12526L4.42122 7.57182C4.32222 7.67125 4.32222 7.77068 4.42122 7.87011L4.86778 8.31666C4.96721 8.41609 5.06621 8.41609 5.16563 8.31666L5.6122 7.87011C5.71162 7.77068 5.71162 7.67125 5.6122 7.57182L5.16563 7.12526Z" fill="#4D3102"/>
<path d="M13.4997 6.88417C13.3605 6.7454 13.2217 6.7454 13.0825 6.88417L12.4574 7.51014C12.3187 7.6489 12.3187 7.7881 12.4574 7.9273L13.0825 8.55283C13.2217 8.69203 13.3605 8.69203 13.4997 8.55283L14.1248 7.9273C14.2636 7.7881 14.2636 7.6489 14.1248 7.51014L13.4997 6.88417Z" fill="#4D3102"/>
<path d="M21.8255 6.64627C21.647 6.46774 21.468 6.46774 21.2895 6.64627L20.4858 7.45077C20.3069 7.62974 20.3069 7.80828 20.4858 7.98725L21.2895 8.79176C21.468 8.97029 21.647 8.97029 21.8255 8.79176L22.6292 7.98725C22.8077 7.80828 22.8077 7.62974 22.6292 7.45077L21.8255 6.64627Z" fill="#4D3102"/>
<path d="M30.1584 6.40564C29.94 6.18724 29.7216 6.18724 29.5032 6.40564L28.5202 7.38948C28.3018 7.60788 28.3018 7.82627 28.5202 8.0451L29.5032 9.02851C29.7216 9.24733 29.94 9.24733 30.1584 9.02851L31.1414 8.0451C31.3598 7.82627 31.3598 7.60788 31.1414 7.38948L30.1584 6.40564Z" fill="#4D3102"/>
<path d="M38.4926 6.16803C38.2344 5.90985 37.9763 5.90985 37.7181 6.16803L36.5565 7.33049C36.2983 7.58867 36.2983 7.84728 36.5565 8.10546L37.7181 9.26791C37.9763 9.52609 38.2344 9.52609 38.4926 9.26791L39.6538 8.10546C39.912 7.84728 39.912 7.58867 39.6538 7.33049L38.4926 6.16803Z" fill="#4D3102"/>
<path d="M46.8259 5.93347C46.5281 5.63507 46.2302 5.63507 45.9324 5.93347L44.5922 7.27453C44.2943 7.5725 44.2943 7.8709 44.5922 8.16886L45.9324 9.50992C46.2302 9.80789 46.5281 9.80789 46.8259 9.50992L48.1661 8.16886C48.464 7.8709 48.464 7.5725 48.1661 7.27453L46.8259 5.93347Z" fill="#4D3102"/>
<path d="M55.1595 5.69017C54.822 5.35199 54.4844 5.35199 54.1469 5.69017L52.6279 7.21028C52.2904 7.54803 52.2904 7.88578 52.6279 8.22353L54.1469 9.74363C54.4844 10.0814 54.822 10.0814 55.1595 9.74363L56.6785 8.22353C57.016 7.88578 57.016 7.54803 56.6785 7.21028L55.1595 5.69017Z" fill="#4D3102"/>
<path d="M63.4932 5.45182C63.1159 5.07429 62.7387 5.07429 62.3614 5.45182L60.6637 7.15096C60.2865 7.5285 60.2865 7.90604 60.6637 8.28358L62.3614 9.98271C62.7387 10.3603 63.1159 10.3603 63.4932 9.98272L65.1908 8.28358C65.5681 7.90604 65.5681 7.5285 65.1908 7.15096L63.4932 5.45182Z" fill="#4D3102"/>
<path d="M71.8268 5.21335C71.4098 4.79603 70.9929 4.79603 70.5759 5.21335L68.6995 7.0911C68.2826 7.50842 68.2826 7.92575 68.6995 8.34307L70.5759 10.2208C70.9929 10.6381 71.4098 10.6381 71.8268 10.2208L73.7031 8.34308C74.1201 7.92575 74.1201 7.50842 73.7031 7.0911L71.8268 5.21335Z" fill="#4D3102"/>
<path d="M80.1604 4.97868C79.7037 4.52157 79.247 4.52157 78.7903 4.97868L76.7353 7.03503C76.2786 7.49214 76.2786 7.94926 76.7353 8.40637L78.7903 10.4632C79.247 10.9198 79.7037 10.9198 80.1604 10.4632L82.2155 8.40637C82.6722 7.94926 82.6722 7.49215 82.2155 7.03503L80.1604 4.97868Z" fill="#4D3102"/>
<path d="M5.16563 15.4025C5.06621 15.3031 4.96721 15.3031 4.86778 15.4025L4.42122 15.8495C4.32222 15.949 4.32222 16.048 4.42122 16.1474L4.86778 16.5944C4.96721 16.6938 5.06621 16.6938 5.16563 16.5944L5.6122 16.1474C5.71162 16.048 5.71162 15.949 5.6122 15.8495L5.16563 15.4025Z" fill="#4D3102"/>
<path d="M13.4997 15.1646C13.3605 15.0254 13.2217 15.0254 13.0825 15.1646L12.4574 15.7902C12.3187 15.9294 12.3187 16.0686 12.4574 16.2073L13.0825 16.8333C13.2217 16.9721 13.3605 16.9721 13.4997 16.8333L14.1248 16.2073C14.2636 16.0686 14.2636 15.9294 14.1248 15.7902L13.4997 15.1646Z" fill="#4D3102"/>
<path d="M21.8255 14.926C21.647 14.7471 21.468 14.7471 21.2895 14.926L20.4858 15.7305C20.3069 15.9091 20.3069 16.0881 20.4858 16.2666L21.2895 17.0711C21.468 17.2501 21.647 17.2501 21.8255 17.0711L22.6292 16.2666C22.8077 16.0881 22.8077 15.9091 22.6292 15.7305L21.8255 14.926Z" fill="#4D3102"/>
<path d="M30.1584 14.6852C29.94 14.4668 29.7216 14.4668 29.5032 14.6852L28.5202 15.669C28.3018 15.8874 28.3018 16.1063 28.5202 16.3246L29.5032 17.3085C29.7216 17.5269 29.94 17.5269 30.1584 17.3085L31.1414 16.3246C31.3598 16.1063 31.3598 15.8874 31.1414 15.669L30.1584 14.6852Z" fill="#4D3102"/>
<path d="M38.4926 14.4464C38.2344 14.1882 37.9763 14.1882 37.7181 14.4464L36.5565 15.6089C36.2983 15.8675 36.2983 16.1256 36.5565 16.3838L37.7181 17.5463C37.9763 17.8049 38.2344 17.8049 38.4926 17.5463L39.6538 16.3838C39.912 16.1256 39.912 15.8675 39.6538 15.6089L38.4926 14.4464Z" fill="#4D3102"/>
<path d="M46.8259 14.2083C46.5281 13.9103 46.2302 13.9103 45.9324 14.2083L44.5922 15.5498C44.2943 15.8478 44.2943 16.1457 44.5922 16.4437L45.9324 17.7852C46.2302 18.0832 46.5281 18.0832 46.8259 17.7852L48.1661 16.4437C48.464 16.1457 48.464 15.8478 48.1661 15.5498L46.8259 14.2083Z" fill="#4D3102"/>
<path d="M55.1595 13.9734C54.822 13.6357 54.4844 13.6357 54.1469 13.9734L52.6279 15.4935C52.2904 15.8313 52.2904 16.169 52.6279 16.5068L54.1469 18.0269C54.4844 18.3651 54.822 18.3651 55.1595 18.0269L56.6785 16.5068C57.016 16.169 57.016 15.8313 56.6785 15.4935L55.1595 13.9734Z" fill="#4D3102"/>
<path d="M63.4932 13.7329C63.1159 13.3554 62.7387 13.3554 62.3614 13.7329L60.6637 15.4316C60.2865 15.8091 60.2865 16.1867 60.6637 16.5642L62.3614 18.2634C62.7387 18.6409 63.1159 18.6409 63.4932 18.2634L65.1908 16.5642C65.5681 16.1867 65.5681 15.8091 65.1908 15.4316L63.4932 13.7329Z" fill="#4D3102"/>
<path d="M71.8268 13.4914C71.4098 13.0741 70.9929 13.0741 70.5759 13.4914L68.6995 15.3692C68.2826 15.7865 68.2826 16.2038 68.6995 16.6212L70.5759 18.4989C70.9929 18.9162 71.4098 18.9162 71.8268 18.4989L73.7031 16.6212C74.1201 16.2038 74.1201 15.7865 73.7031 15.3692L71.8268 13.4914Z" fill="#4D3102"/>
<path d="M80.1604 13.2536C79.7037 12.7969 79.247 12.7969 78.7903 13.2536L76.7353 15.3104C76.2786 15.7675 76.2786 16.2246 76.7353 16.6817L78.7903 18.7381C79.247 19.1952 79.7037 19.1952 80.1604 18.7381L82.2155 16.6817C82.6722 16.2246 82.6722 15.7675 82.2155 15.3104L80.1604 13.2536Z" fill="#4D3102"/>
<path d="M5.16563 23.6821C5.06621 23.5827 4.96721 23.5827 4.86778 23.6821L4.42122 24.1287C4.32222 24.2281 4.32222 24.3276 4.42122 24.427L4.86778 24.8735C4.96721 24.973 5.06621 24.973 5.16563 24.8735L5.6122 24.427C5.71162 24.3276 5.71162 24.2281 5.6122 24.1287L5.16563 23.6821Z" fill="#4D3102"/>
<path d="M13.4997 23.444C13.3605 23.3052 13.2217 23.3052 13.0825 23.444L12.4574 24.07C12.3187 24.2087 12.3187 24.3479 12.4574 24.4871L13.0825 25.1126C13.2217 25.2518 13.3605 25.2518 13.4997 25.1126L14.1248 24.4871C14.2636 24.3479 14.2636 24.2087 14.1248 24.07L13.4997 23.444Z" fill="#4D3102"/>
<path d="M21.8255 23.2067C21.647 23.0277 21.468 23.0277 21.2895 23.2067L20.4858 24.0112C20.3069 24.1897 20.3069 24.3687 20.4858 24.5477L21.2895 25.3517C21.468 25.5307 21.647 25.5307 21.8255 25.3517L22.6292 24.5477C22.8077 24.3687 22.8077 24.1897 22.6292 24.0112L21.8255 23.2067Z" fill="#4D3102"/>
<path d="M30.1584 22.9672C29.94 22.7484 29.7216 22.7484 29.5032 22.9672L28.5202 23.9507C28.3018 24.1695 28.3018 24.3879 28.5202 24.6067L29.5032 25.5901C29.7216 25.8085 29.94 25.8085 30.1584 25.5901L31.1414 24.6067C31.3598 24.3879 31.3598 24.1695 31.1414 23.9507L30.1584 22.9672Z" fill="#4D3102"/>
<path d="M38.4926 22.7278C38.2344 22.4692 37.9763 22.4692 37.7181 22.7278L36.5565 23.8903C36.2983 24.1485 36.2983 24.4067 36.5565 24.6653L37.7181 25.8277C37.9763 26.0859 38.2344 26.0859 38.4926 25.8277L39.6538 24.6653C39.912 24.4067 39.912 24.1485 39.6538 23.8903L38.4926 22.7278Z" fill="#4D3102"/>
<path d="M46.8259 22.4881C46.5281 22.1897 46.2302 22.1897 45.9324 22.4881L44.5922 23.8291C44.2943 24.1271 44.2943 24.4255 44.5922 24.7235L45.9324 26.0645C46.2302 26.3629 46.5281 26.3629 46.8259 26.0645L48.1661 24.7235C48.464 24.4255 48.464 24.1271 48.1661 23.8291L46.8259 22.4881Z" fill="#4D3102"/>
<path d="M55.1595 22.2515C54.822 21.9137 54.4844 21.9137 54.1469 22.2515L52.6279 23.7716C52.2904 24.1093 52.2904 24.4471 52.6279 24.7848L54.1469 26.3049C54.4844 26.6427 54.822 26.6427 55.1595 26.3049L56.6785 24.7848C57.016 24.4471 57.016 24.1093 56.6785 23.7716L55.1595 22.2515Z" fill="#4D3102"/>
<path d="M63.4932 22.0126C63.1159 21.635 62.7387 21.635 62.3614 22.0126L60.6637 23.7117C60.2865 24.0892 60.2865 24.4668 60.6637 24.8443L62.3614 26.543C62.7387 26.9206 63.1159 26.9206 63.4932 26.543L65.1908 24.8443C65.5681 24.4668 65.5681 24.0892 65.1908 23.7117L63.4932 22.0126Z" fill="#4D3102"/>
<path d="M71.8268 21.7732C71.4098 21.3558 70.9929 21.3558 70.5759 21.7732L68.6995 23.6509C68.2826 24.0682 68.2826 24.4856 68.6995 24.9029L70.5759 26.7806C70.9929 27.198 71.4098 27.198 71.8268 26.7806L73.7031 24.9029C74.1201 24.4856 74.1201 24.0682 73.7031 23.6509L71.8268 21.7732Z" fill="#4D3102"/>
<path d="M80.1604 21.5365C79.7037 21.0794 79.247 21.0794 78.7903 21.5365L76.7353 23.5929C76.2786 24.05 76.2786 24.5071 76.7353 24.9642L78.7903 27.021C79.247 27.4777 79.7037 27.4777 80.1604 27.021L82.2155 24.9642C82.6722 24.5071 82.6722 24.05 82.2155 23.5929L80.1604 21.5365Z" fill="#4D3102"/>
<path d="M5.16563 31.9604C5.06621 31.861 4.96721 31.861 4.86778 31.9604L4.42122 32.4074C4.32222 32.5068 4.32222 32.6058 4.42122 32.7052L4.86778 33.1522C4.96721 33.2517 5.06621 33.2517 5.16563 33.1522L5.6122 32.7052C5.71162 32.6058 5.71162 32.5068 5.6122 32.4074L5.16563 31.9604Z" fill="#4D3102"/>
<path d="M13.4997 31.724C13.3605 31.5848 13.2217 31.5848 13.0825 31.724L12.4574 32.3495C12.3187 32.4887 12.3187 32.6275 12.4574 32.7667L13.0825 33.3926C13.2217 33.5314 13.3605 33.5314 13.4997 33.3926L14.1248 32.7667C14.2636 32.6275 14.2636 32.4887 14.1248 32.3495L13.4997 31.724Z" fill="#4D3102"/>
<path d="M21.8255 31.4834C21.647 31.3044 21.468 31.3044 21.2895 31.4834L20.4858 32.2875C20.3069 32.4665 20.3069 32.6454 20.4858 32.824L21.2895 33.6285C21.468 33.8074 21.647 33.8074 21.8255 33.6285L22.6292 32.824C22.8077 32.6454 22.8077 32.4665 22.6292 32.2875L21.8255 31.4834Z" fill="#4D3102"/>
<path d="M30.1584 31.2461C29.94 31.0277 29.7216 31.0277 29.5032 31.2461L28.5202 32.2299C28.3018 32.4483 28.3018 32.6672 28.5202 32.8855L29.5032 33.869C29.7216 34.0878 29.94 34.0878 30.1584 33.869L31.1414 32.8855C31.3598 32.6672 31.3598 32.4483 31.1414 32.2299L30.1584 31.2461Z" fill="#4D3102"/>
<path d="M38.4926 31.0075C38.2344 30.7493 37.9763 30.7493 37.7181 31.0075L36.5565 32.17C36.2983 32.4281 36.2983 32.6868 36.5565 32.9449L37.7181 34.1074C37.9763 34.3656 38.2344 34.3656 38.4926 34.1074L39.6538 32.9449C39.912 32.6868 39.912 32.4281 39.6538 32.17L38.4926 31.0075Z" fill="#4D3102"/>
<path d="M46.8259 30.7686C46.5281 30.4706 46.2302 30.4706 45.9324 30.7686L44.5922 32.1097C44.2943 32.4081 44.2943 32.706 44.5922 33.004L45.9324 34.3455C46.2302 34.6435 46.5281 34.6435 46.8259 34.3455L48.1661 33.004C48.464 32.706 48.464 32.4081 48.1661 32.1097L46.8259 30.7686Z" fill="#4D3102"/>
<path d="M55.1595 30.5287C54.822 30.191 54.4844 30.191 54.1469 30.5287L52.6279 32.0488C52.2904 32.387 52.2904 32.7248 52.6279 33.0625L54.1469 34.5826C54.4844 34.9204 54.822 34.9204 55.1595 34.5826L56.6785 33.0625C57.016 32.7248 57.016 32.387 56.6785 32.0488L55.1595 30.5287Z" fill="#4D3102"/>
<path d="M63.4932 30.2917C63.1159 29.9142 62.7387 29.9142 62.3614 30.2917L60.6637 31.9904C60.2865 32.368 60.2865 32.7455 60.6637 33.1231L62.3614 34.8222C62.7387 35.1997 63.1159 35.1997 63.4932 34.8222L65.1908 33.1231C65.5681 32.7455 65.5681 32.368 65.1908 31.9904L63.4932 30.2917Z" fill="#4D3102"/>
<path d="M71.8268 30.0528C71.4098 29.6355 70.9929 29.6355 70.5759 30.0528L68.6995 31.931C68.2826 32.3479 68.2826 32.7652 68.6995 33.1825L70.5759 35.0603C70.9929 35.4776 71.4098 35.4776 71.8268 35.0603L73.7031 33.1825C74.1201 32.7652 74.1201 32.3479 73.7031 31.931L71.8268 30.0528Z" fill="#4D3102"/>
<path d="M80.1604 29.8149C79.7037 29.3578 79.247 29.3578 78.7903 29.8149L76.7353 31.8717C76.2786 32.3288 76.2786 32.7855 76.7353 33.2426L78.7903 35.2994C79.247 35.7565 79.7037 35.7565 80.1604 35.2994L82.2155 33.2426C82.6722 32.7855 82.6722 32.3288 82.2155 31.8717L80.1604 29.8149Z" fill="#4D3102"/>
<path d="M5.16563 40.242C5.06621 40.143 4.96721 40.143 4.86778 40.242L4.42122 40.689C4.32222 40.7884 4.32222 40.8879 4.42122 40.9869L4.86778 41.4339C4.96721 41.5333 5.06621 41.5333 5.16563 41.4339L5.6122 40.9869C5.71162 40.8879 5.71162 40.7884 5.6122 40.689L5.16563 40.242Z" fill="#4D3102"/>
<path d="M13.4997 40.0023C13.3605 39.8636 13.2217 39.8636 13.0825 40.0023L12.4574 40.6283C12.3187 40.7671 12.3187 40.9063 12.4574 41.0455L13.0825 41.671C13.2217 41.8102 13.3605 41.8102 13.4997 41.671L14.1248 41.0455C14.2636 40.9063 14.2636 40.7671 14.1248 40.6283L13.4997 40.0023Z" fill="#4D3102"/>
<path d="M21.8255 39.7655C21.647 39.5865 21.468 39.5865 21.2895 39.7655L20.4858 40.57C20.3069 40.7486 20.3069 40.9275 20.4858 41.1061L21.2895 41.9106C21.468 42.0895 21.647 42.0895 21.8255 41.9106L22.6292 41.1061C22.8077 40.9275 22.8077 40.7486 22.6292 40.57L21.8255 39.7655Z" fill="#4D3102"/>
<path d="M30.1584 39.5231C29.94 39.3043 29.7216 39.3043 29.5032 39.5231L28.5202 40.5066C28.3018 40.7254 28.3018 40.9438 28.5202 41.1626L29.5032 42.146C29.7216 42.3644 29.94 42.3644 30.1584 42.146L31.1414 41.1626C31.3598 40.9438 31.3598 40.7254 31.1414 40.5066L30.1584 39.5231Z" fill="#4D3102"/>
<path d="M38.4926 39.2868C38.2344 39.0287 37.9763 39.0287 37.7181 39.2868L36.5565 40.4493C36.2983 40.7079 36.2983 40.9661 36.5565 41.2243L37.7181 42.3867C37.9763 42.6453 38.2344 42.6453 38.4926 42.3867L39.6538 41.2243C39.912 40.9661 39.912 40.7079 39.6538 40.4493L38.4926 39.2868Z" fill="#4D3102"/>
<path d="M46.8259 39.0483C46.5281 38.7503 46.2302 38.7503 45.9324 39.0483L44.5922 40.3898C44.2943 40.6877 44.2943 40.9857 44.5922 41.2841L45.9324 42.6252C46.2302 42.9231 46.5281 42.9231 46.8259 42.6252L48.1661 41.2841C48.464 40.9857 48.464 40.6877 48.1661 40.3898L46.8259 39.0483Z" fill="#4D3102"/>
<path d="M55.1595 38.8108C54.822 38.4731 54.4844 38.4731 54.1469 38.8108L52.6279 40.3309C52.2904 40.6691 52.2904 41.0069 52.6279 41.3446L54.1469 42.8647C54.4844 43.2025 54.822 43.2025 55.1595 42.8647L56.6785 41.3446C57.016 41.0069 57.016 40.6691 56.6785 40.3309L55.1595 38.8108Z" fill="#4D3102"/>
<path d="M63.4932 38.5724C63.1159 38.1948 62.7387 38.1948 62.3614 38.5724L60.6637 40.2715C60.2865 40.649 60.2865 41.0266 60.6637 41.4041L62.3614 43.1028C62.7387 43.4804 63.1159 43.4804 63.4932 43.1028L65.1908 41.4041C65.5681 41.0266 65.5681 40.649 65.1908 40.2715L63.4932 38.5724Z" fill="#4D3102"/>
<path d="M71.8268 38.3315C71.4098 37.9142 70.9929 37.9142 70.5759 38.3315L68.6995 40.2093C68.2826 40.6266 68.2826 41.0439 68.6995 41.4612L70.5759 43.339C70.9929 43.7563 71.4098 43.7563 71.8268 43.339L73.7031 41.4612C74.1201 41.0439 74.1201 40.6266 73.7031 40.2093L71.8268 38.3315Z" fill="#4D3102"/>
<path d="M80.1604 38.095C79.7037 37.6379 79.247 37.6379 78.7903 38.095L76.7353 40.1514C76.2786 40.6085 76.2786 41.0656 76.7353 41.5227L78.7903 43.579C79.247 44.0362 79.7037 44.0362 80.1604 43.579L82.2155 41.5227C82.6722 41.0656 82.6722 40.6085 82.2155 40.1514L80.1604 38.095Z" fill="#4D3102"/>
<path d="M5.16563 48.5189C5.06621 48.4196 4.96721 48.4196 4.86778 48.5189L4.42122 48.9658C4.32222 49.0651 4.32222 49.1644 4.42122 49.2637L4.86778 49.7107C4.96721 49.81 5.06621 49.81 5.16563 49.7107L5.6122 49.2637C5.71162 49.1644 5.71162 49.0651 5.6122 48.9658L5.16563 48.5189Z" fill="#4D3102"/>
<path d="M13.4997 48.2837C13.3605 48.1446 13.2217 48.1446 13.0825 48.2837L12.4574 48.9094C12.3187 49.0484 12.3187 49.1875 12.4574 49.3265L13.0825 49.9522C13.2217 50.0913 13.3605 50.0913 13.4997 49.9522L14.1248 49.3265C14.2636 49.1875 14.2636 49.0484 14.1248 48.9094L13.4997 48.2837Z" fill="#4D3102"/>
<path d="M21.8255 48.0451C21.647 47.8663 21.468 47.8663 21.2895 48.0451L20.4858 48.8496C20.3069 49.0284 20.3069 49.2072 20.4858 49.3859L21.2895 50.1904C21.468 50.3692 21.647 50.3692 21.8255 50.1904L22.6292 49.3859C22.8077 49.2072 22.8077 49.0284 22.6292 48.8496L21.8255 48.0451Z" fill="#4D3102"/>
<path d="M30.1584 47.8055C29.94 47.5869 29.7216 47.5869 29.5032 47.8055L28.5202 48.7891C28.3018 49.0077 28.3018 49.2263 28.5202 49.4449L29.5032 50.4285C29.7216 50.647 29.94 50.647 30.1584 50.4285L31.1414 49.4449C31.3598 49.2263 31.3598 49.0077 31.1414 48.7891L30.1584 47.8055Z" fill="#4D3102"/>
<path d="M38.4926 47.5638C38.2344 47.3055 37.9763 47.3055 37.7181 47.5638L36.5565 48.7263C36.2983 48.9846 36.2983 49.2429 36.5565 49.5012L37.7181 50.6637C37.9763 50.922 38.2344 50.922 38.4926 50.6637L39.6538 49.5012C39.912 49.2429 39.912 48.9846 39.6538 48.7263L38.4926 47.5638Z" fill="#4D3102"/>
<path d="M46.8259 47.3284C46.5281 47.0304 46.2302 47.0304 45.9324 47.3284L44.5922 48.6697C44.2943 48.9678 44.2943 49.2659 44.5922 49.5639L45.9324 50.9052C46.2302 51.2033 46.5281 51.2033 46.8259 50.9052L48.1661 49.5639C48.464 49.2659 48.464 48.9678 48.1661 48.6697L46.8259 47.3284Z" fill="#4D3102"/>
<path d="M55.1595 47.0918C54.822 46.754 54.4844 46.754 54.1469 47.0918L52.6279 48.6119C52.2904 48.9497 52.2904 49.2875 52.6279 49.6253L54.1469 51.1455C54.4844 51.4833 54.822 51.4833 55.1595 51.1455L56.6785 49.6253C57.016 49.2875 57.016 48.9497 56.6785 48.6119L55.1595 47.0918Z" fill="#4D3102"/>
<path d="M63.4932 46.8509C63.1159 46.4732 62.7387 46.4732 62.3614 46.8509L60.6637 48.5499C60.2865 48.9274 60.2865 49.305 60.6637 49.6825L62.3614 51.3815C62.7387 51.7591 63.1159 51.7591 63.4932 51.3815L65.1908 49.6825C65.5681 49.305 65.5681 48.9274 65.1908 48.5499L63.4932 46.8509Z" fill="#4D3102"/>
<path d="M71.8268 46.6131C71.4098 46.1958 70.9929 46.1958 70.5759 46.6131L68.6995 48.491C68.2826 48.9082 68.2826 49.3255 68.6995 49.7428L70.5759 51.6206C70.9929 52.0379 71.4098 52.0379 71.8268 51.6206L73.7031 49.7428C74.1201 49.3255 74.1201 48.9082 73.7031 48.491L71.8268 46.6131Z" fill="#4D3102"/>
<path d="M80.1604 46.3759C79.7037 45.9188 79.247 45.9188 78.7903 46.3759L76.7353 48.4325C76.2786 48.8895 76.2786 49.3466 76.7353 49.8036L78.7903 51.8602C79.247 52.3173 79.7037 52.3173 80.1604 51.8602L82.2155 49.8036C82.6722 49.3466 82.6722 48.8895 82.2155 48.4325L80.1604 46.3759Z" fill="#4D3102"/>
<path d="M5.16563 56.7981C5.06621 56.6987 4.96721 56.6987 4.86778 56.7981L4.42122 57.245C4.32222 57.3443 4.32222 57.4436 4.42122 57.5429L4.86778 57.9899C4.96721 58.0892 5.06621 58.0892 5.16563 57.9899L5.6122 57.5429C5.71162 57.4436 5.71162 57.3443 5.6122 57.245L5.16563 56.7981Z" fill="#4D3102"/>
<path d="M13.4997 56.5594C13.3605 56.4204 13.2217 56.4204 13.0825 56.5594L12.4574 57.1851C12.3187 57.3242 12.3187 57.4632 12.4574 57.6023L13.0825 58.228C13.2217 58.367 13.3605 58.367 13.4997 58.228L14.1248 57.6023C14.2636 57.4632 14.2636 57.3242 14.1248 57.1851L13.4997 56.5594Z" fill="#4D3102"/>
<path d="M21.8255 56.3259C21.647 56.1471 21.468 56.1471 21.2895 56.3259L20.4858 57.1304C20.3069 57.3092 20.3069 57.4879 20.4858 57.6667L21.2895 58.4711C21.468 58.6499 21.647 58.6499 21.8255 58.4711L22.6292 57.6667C22.8077 57.4879 22.8077 57.3092 22.6292 57.1304L21.8255 56.3259Z" fill="#4D3102"/>
<path d="M30.1584 56.0852C29.94 55.8666 29.7216 55.8666 29.5032 56.0852L28.5202 57.0688C28.3018 57.2874 28.3018 57.5059 28.5202 57.7245L29.5032 58.7081C29.7216 58.9267 29.94 58.9267 30.1584 58.7081L31.1414 57.7245C31.3598 57.5059 31.3598 57.2874 31.1414 57.0688L30.1584 56.0852Z" fill="#4D3102"/>
<path d="M38.4926 55.8469C38.2344 55.5886 37.9763 55.5886 37.7181 55.8469L36.5565 57.0093C36.2983 57.2677 36.2983 57.526 36.5565 57.7843L37.7181 58.9468C37.9763 59.2051 38.2344 59.2051 38.4926 58.9468L39.6538 57.7843C39.912 57.526 39.912 57.2677 39.6538 57.0093L38.4926 55.8469Z" fill="#4D3102"/>
<path d="M46.8259 55.6052C46.5281 55.3071 46.2302 55.3071 45.9324 55.6052L44.5922 56.9465C44.2943 57.2446 44.2943 57.5426 44.5922 57.8407L45.9324 59.182C46.2302 59.48 46.5281 59.48 46.8259 59.182L48.1661 57.8407C48.464 57.5426 48.464 57.2446 48.1661 56.9465L46.8259 55.6052Z" fill="#4D3102"/>
<path d="M55.1595 55.3714C54.822 55.0336 54.4844 55.0336 54.1469 55.3714L52.6279 56.8916C52.2904 57.2294 52.2904 57.5672 52.6279 57.905L54.1469 59.4251C54.4844 59.7629 54.822 59.7629 55.1595 59.4251L56.6785 57.905C57.016 57.5672 57.016 57.2294 56.6785 56.8916L55.1595 55.3714Z" fill="#4D3102"/>
<path d="M63.4932 55.1316C63.1159 54.754 62.7387 54.754 62.3614 55.1316L60.6637 56.8305C60.2865 57.2081 60.2865 57.5857 60.6637 57.9632L62.3614 59.6622C62.7387 60.0397 63.1159 60.0397 63.4932 59.6622L65.1908 57.9632C65.5681 57.5857 65.5681 57.2081 65.1908 56.8305L63.4932 55.1316Z" fill="#4D3102"/>
<path d="M71.8268 54.8944C71.4098 54.4771 70.9929 54.4771 70.5759 54.8944L68.6995 56.7722C68.2826 57.1895 68.2826 57.6068 68.6995 58.0241L70.5759 59.9019C70.9929 60.3192 71.4098 60.3192 71.8268 59.9019L73.7031 58.0241C74.1201 57.6068 74.1201 57.1895 73.7031 56.7722L71.8268 54.8944Z" fill="#4D3102"/>
<path d="M80.1604 54.6536C79.7037 54.1965 79.247 54.1965 78.7903 54.6536L76.7353 56.7102C76.2786 57.1672 76.2786 57.6243 76.7353 58.0813L78.7903 60.1379C79.247 60.595 79.7037 60.595 80.1604 60.1379L82.2155 58.0813C82.6722 57.6243 82.6722 57.1672 82.2155 56.7102L80.1604 54.6536Z" fill="#4D3102"/>
<path d="M5.16563 65.0787C5.06621 64.9794 4.96721 64.9794 4.86778 65.0787L4.42122 65.5256C4.32222 65.6249 4.32222 65.7242 4.42122 65.8235L4.86778 66.2705C4.96721 66.3698 5.06621 66.3698 5.16563 66.2705L5.6122 65.8235C5.71162 65.7242 5.71162 65.6249 5.6122 65.5256L5.16563 65.0787Z" fill="#4D3102"/>
<path d="M13.4997 64.8401C13.3605 64.701 13.2217 64.701 13.0825 64.8401L12.4574 65.4658C12.3187 65.6048 12.3187 65.7439 12.4574 65.8829L13.0825 66.5086C13.2217 66.6477 13.3605 66.6477 13.4997 66.5086L14.1248 65.8829C14.2636 65.7439 14.2636 65.6048 14.1248 65.4658L13.4997 64.8401Z" fill="#4D3102"/>
<path d="M21.8255 64.6015C21.647 64.4228 21.468 64.4228 21.2895 64.6015L20.4858 65.406C20.3069 65.5848 20.3069 65.7635 20.4858 65.9423L21.2895 66.7468C21.468 66.9255 21.647 66.9255 21.8255 66.7468L22.6292 65.9423C22.8077 65.7635 22.8077 65.5848 22.6292 65.406L21.8255 64.6015Z" fill="#4D3102"/>
<path d="M30.1584 64.3669C29.94 64.1483 29.7216 64.1483 29.5032 64.3669L28.5202 65.3505C28.3018 65.5691 28.3018 65.7877 28.5202 66.0063L29.5032 66.9899C29.7216 67.2085 29.94 67.2085 30.1584 66.9899L31.1414 66.0063C31.3598 65.7877 31.3598 65.5691 31.1414 65.3505L30.1584 64.3669Z" fill="#4D3102"/>
<path d="M38.4926 64.1266C38.2344 63.8682 37.9763 63.8682 37.7181 64.1266L36.5565 65.289C36.2983 65.5474 36.2983 65.8057 36.5565 66.064L37.7181 67.2264C37.9763 67.4847 38.2344 67.4847 38.4926 67.2264L39.6538 66.064C39.912 65.8057 39.912 65.5474 39.6538 65.289L38.4926 64.1266Z" fill="#4D3102"/>
<path d="M46.8259 63.8858C46.5281 63.5878 46.2302 63.5878 45.9324 63.8858L44.5922 65.2271C44.2943 65.5252 44.2943 65.8233 44.5922 66.1213L45.9324 67.4626C46.2302 67.7607 46.5281 67.7607 46.8259 67.4626L48.1661 66.1213C48.464 65.8233 48.464 65.5252 48.1661 65.2271L46.8259 63.8858Z" fill="#4D3102"/>
<path d="M55.1595 63.647C54.822 63.3093 54.4844 63.3093 54.1469 63.647L52.6279 65.1672C52.2904 65.505 52.2904 65.8428 52.6279 66.1806L54.1469 67.7007C54.4844 68.0386 54.822 68.0386 55.1595 67.7007L56.6785 66.1806C57.016 65.8428 57.016 65.505 56.6785 65.1672L55.1595 63.647Z" fill="#4D3102"/>
<path d="M63.4932 63.4078C63.1159 63.0303 62.7387 63.0303 62.3614 63.4078L60.6637 65.1068C60.2865 65.4843 60.2865 65.8619 60.6637 66.2394L62.3614 67.9384C62.7387 68.3159 63.1159 68.3159 63.4932 67.9384L65.1908 66.2394C65.5681 65.8619 65.5681 65.4843 65.1908 65.1068L63.4932 63.4078Z" fill="#4D3102"/>
<path d="M71.8268 63.174C71.4098 62.7568 70.9929 62.7568 70.5759 63.174L68.6995 65.0519C68.2826 65.4692 68.2826 65.8864 68.6995 66.3037L70.5759 68.1815C70.9929 68.5988 71.4098 68.5988 71.8268 68.1815L73.7031 66.3037C74.1201 65.8864 74.1201 65.4692 73.7031 65.0519L71.8268 63.174Z" fill="#4D3102"/>
<path d="M80.1604 62.9342C79.7037 62.4772 79.247 62.4772 78.7903 62.9342L76.7353 64.9909C76.2786 65.4479 76.2786 65.9049 76.7353 66.3619L78.7903 68.4186C79.247 68.8756 79.7037 68.8756 80.1604 68.4186L82.2155 66.3619C82.6722 65.9049 82.6722 65.4479 82.2155 64.9909L80.1604 62.9342Z" fill="#4D3102"/>
<path d="M5.16563 73.3593C5.06621 73.26 4.96721 73.26 4.86778 73.3593L4.42122 73.8062C4.32222 73.9055 4.32222 74.0049 4.42122 74.1042L4.86778 74.5511C4.96721 74.6504 5.06621 74.6504 5.16563 74.5511L5.6122 74.1042C5.71162 74.0049 5.71162 73.9055 5.6122 73.8062L5.16563 73.3593Z" fill="#4D3102"/>
<path d="M13.4997 73.1208C13.3605 72.9817 13.2217 72.9817 13.0825 73.1208L12.4574 73.7465C12.3187 73.8855 12.3187 74.0246 12.4574 74.1636L13.0825 74.7893C13.2217 74.9283 13.3605 74.9283 13.4997 74.7893L14.1248 74.1636C14.2636 74.0246 14.2636 73.8855 14.1248 73.7465L13.4997 73.1208Z" fill="#4D3102"/>
<path d="M21.8255 72.8817C21.647 72.7029 21.468 72.7029 21.2895 72.8817L20.4858 73.6861C20.3069 73.8649 20.3069 74.0437 20.4858 74.2225L21.2895 75.0269C21.468 75.2057 21.647 75.2057 21.8255 75.0269L22.6292 74.2225C22.8077 74.0437 22.8077 73.8649 22.6292 73.6861L21.8255 72.8817Z" fill="#4D3102"/>
<path d="M30.1584 72.6411C29.94 72.4225 29.7216 72.4225 29.5032 72.6411L28.5202 73.6247C28.3018 73.8433 28.3018 74.0619 28.5202 74.2805L29.5032 75.2641C29.7216 75.4826 29.94 75.4826 30.1584 75.2641L31.1414 74.2805C31.3598 74.0619 31.3598 73.8433 31.1414 73.6247L30.1584 72.6411Z" fill="#4D3102"/>
<path d="M38.4926 72.4033C38.2344 72.1449 37.9763 72.1449 37.7181 72.4033L36.5565 73.5658C36.2983 73.8241 36.2983 74.0824 36.5565 74.3407L37.7181 75.5031C37.9763 75.7615 38.2344 75.7615 38.4926 75.5031L39.6538 74.3407C39.912 74.0824 39.912 73.8241 39.6538 73.5658L38.4926 72.4033Z" fill="#4D3102"/>
<path d="M46.8259 72.1696C46.5281 71.8715 46.2302 71.8715 45.9324 72.1696L44.5922 73.5108C44.2943 73.8089 44.2943 74.1069 44.5922 74.405L45.9324 75.7463C46.2302 76.0444 46.5281 76.0444 46.8259 75.7463L48.1661 74.405C48.464 74.1069 48.464 73.8089 48.1661 73.5108L46.8259 72.1696Z" fill="#4D3102"/>
<path d="M55.1595 71.9263C54.822 71.5884 54.4844 71.5884 54.1469 71.9263L52.6279 73.4464C52.2904 73.7842 52.2904 74.122 52.6279 74.4598L54.1469 75.9799C54.4844 76.3177 54.822 76.3177 55.1595 75.9799L56.6785 74.4598C57.016 74.122 57.016 73.7842 56.6785 73.4464L55.1595 71.9263Z" fill="#4D3102"/>
<path d="M63.4932 71.6885C63.1159 71.3109 62.7387 71.3109 62.3614 71.6885L60.6637 73.3874C60.2865 73.765 60.2865 74.1425 60.6637 74.5201L62.3614 76.219C62.7387 76.5966 63.1159 76.5966 63.4932 76.219L65.1908 74.5201C65.5681 74.1425 65.5681 73.765 65.1908 73.3874L63.4932 71.6885Z" fill="#4D3102"/>
<path d="M71.8268 71.4497C71.4098 71.0324 70.9929 71.0324 70.5759 71.4497L68.6995 73.3275C68.2826 73.7448 68.2826 74.1621 68.6995 74.5793L70.5759 76.4572C70.9929 76.8745 71.4098 76.8745 71.8268 76.4572L73.7031 74.5793C74.1201 74.1621 74.1201 73.7448 73.7031 73.3275L71.8268 71.4497Z" fill="#4D3102"/>
<path d="M80.1604 71.2159C79.7037 70.7589 79.247 70.7589 78.7903 71.2159L76.7353 73.2726C76.2786 73.7296 76.2786 74.1866 76.7353 74.6437L78.7903 76.7003C79.247 77.1573 79.7037 77.1573 80.1604 76.7003L82.2155 74.6437C82.6722 74.1866 82.6722 73.7296 82.2155 73.2726L80.1604 71.2159Z" fill="#4D3102"/>
<path d="M5.16563 81.637C5.06621 81.5377 4.96721 81.5377 4.86778 81.637L4.42122 82.084C4.32222 82.1833 4.32222 82.2826 4.42122 82.3819L4.86778 82.8288C4.96721 82.9282 5.06621 82.9282 5.16563 82.8288L5.6122 82.3819C5.71162 82.2826 5.71162 82.1833 5.6122 82.084L5.16563 81.637Z" fill="#4D3102"/>
<path d="M13.4997 81.3999C13.3605 81.2609 13.2217 81.2609 13.0825 81.3999L12.4574 82.0256C12.3187 82.1647 12.3187 82.3037 12.4574 82.4427L13.0825 83.0684C13.2217 83.2075 13.3605 83.2075 13.4997 83.0684L14.1248 82.4427C14.2636 82.3037 14.2636 82.1647 14.1248 82.0256L13.4997 81.3999Z" fill="#4D3102"/>
<path d="M21.8255 81.1623C21.647 80.9836 21.468 80.9836 21.2895 81.1623L20.4858 81.9668C20.3069 82.1456 20.3069 82.3243 20.4858 82.5031L21.2895 83.3076C21.468 83.4863 21.647 83.4863 21.8255 83.3076L22.6292 82.5031C22.8077 82.3243 22.8077 82.1456 22.6292 81.9668L21.8255 81.1623Z" fill="#4D3102"/>
<path d="M30.1584 80.9237C29.94 80.7051 29.7216 80.7051 29.5032 80.9237L28.5202 81.9073C28.3018 82.1258 28.3018 82.3444 28.5202 82.563L29.5032 83.5466C29.7216 83.7652 29.94 83.7652 30.1584 83.5466L31.1414 82.563C31.3598 82.3444 31.3598 82.1258 31.1414 81.9073L30.1584 80.9237Z" fill="#4D3102"/>
<path d="M38.4926 80.6849C38.2344 80.4266 37.9763 80.4266 37.7181 80.6849L36.5565 81.8474C36.2983 82.1057 36.2983 82.364 36.5565 82.6223L37.7181 83.7848C37.9763 84.0431 38.2344 84.0431 38.4926 83.7848L39.6538 82.6223C39.912 82.364 39.912 82.1057 39.6538 81.8474L38.4926 80.6849Z" fill="#4D3102"/>
<path d="M46.8259 80.4437C46.5281 80.1456 46.2302 80.1456 45.9324 80.4437L44.5922 81.785C44.2943 82.0831 44.2943 82.3811 44.5922 82.6792L45.9324 84.0205C46.2302 84.3185 46.5281 84.3185 46.8259 84.0205L48.1661 82.6792C48.464 82.3811 48.464 82.0831 48.1661 81.785L46.8259 80.4437Z" fill="#4D3102"/>
<path d="M55.1595 80.2099C54.822 79.8721 54.4844 79.8721 54.1469 80.2099L52.6279 81.73C52.2904 82.0679 52.2904 82.4057 52.6279 82.7435L54.1469 84.2636C54.4844 84.6014 54.822 84.6014 55.1595 84.2636L56.6785 82.7435C57.016 82.4057 57.016 82.0679 56.6785 81.73L55.1595 80.2099Z" fill="#4D3102"/>
<path d="M63.4932 79.9681C63.1159 79.5906 62.7387 79.5906 62.3614 79.9681L60.6637 81.6671C60.2865 82.0446 60.2865 82.4222 60.6637 82.7997L62.3614 84.4987C62.7387 84.8762 63.1159 84.8762 63.4932 84.4987L65.1908 82.7997C65.5681 82.4222 65.5681 82.0446 65.1908 81.6671L63.4932 79.9681Z" fill="#4D3102"/>
<path d="M71.8268 79.7304C71.4098 79.3131 70.9929 79.3131 70.5759 79.7304L68.6995 81.6081C68.2826 82.0254 68.2826 82.4427 68.6995 82.86L70.5759 84.7378C70.9929 85.1551 71.4098 85.1551 71.8268 84.7378L73.7031 82.86C74.1201 82.4427 74.1201 82.0254 73.7031 81.6081L71.8268 79.7304Z" fill="#4D3102"/>
<path d="M80.1604 79.4911C79.7037 79.034 79.247 79.034 78.7903 79.4911L76.7353 81.5477C76.2786 82.0047 76.2786 82.4618 76.7353 82.9188L78.7903 84.9754C79.247 85.4325 79.7037 85.4325 80.1604 84.9754L82.2155 82.9188C82.6722 82.4618 82.6722 82.0047 82.2155 81.5477L80.1604 79.4911Z" fill="#4D3102"/>
<path d="M1.00813 3.05238C0.919946 2.96376 0.83219 2.96376 0.74357 3.05238L0.346723 3.44967C0.258102 3.53829 0.258102 3.62561 0.346723 3.71423L0.743569 4.11151C0.83219 4.20013 0.919946 4.20013 1.00813 4.11151L1.40542 3.71423C1.4936 3.62561 1.4936 3.53829 1.40542 3.44967L1.00813 3.05238Z" fill="#4D3102"/>
<path d="M9.35062 2.78493C9.21834 2.65265 9.08605 2.65265 8.95377 2.78493L8.3585 3.38107C8.22621 3.51335 8.22621 3.64563 8.3585 3.77835L8.95377 4.37405C9.08605 4.50634 9.21834 4.50634 9.35062 4.37405L9.94632 3.77835C10.0786 3.64563 10.0786 3.51335 9.94632 3.38107L9.35062 2.78493Z" fill="#4D3102"/>
<path d="M17.6856 2.51967C17.5092 2.34329 17.3324 2.34329 17.1565 2.51967L16.3623 3.31422C16.1864 3.4906 16.1864 3.66741 16.3623 3.84378L17.1565 4.63835C17.3324 4.81472 17.5092 4.81472 17.6856 4.63835L18.4793 3.84378C18.6557 3.66741 18.6557 3.4906 18.4793 3.31422L17.6856 2.51967Z" fill="#4D3102"/>
<path d="M26.0348 2.25512C25.8138 2.03413 25.5941 2.03413 25.3731 2.25512L24.3802 3.24848C24.1592 3.4699 24.1592 3.69002 24.3802 3.91101L25.3731 4.90437C25.5941 5.12579 25.8138 5.12579 26.0348 4.90437L27.0277 3.91101C27.2487 3.69002 27.2487 3.4699 27.0277 3.24848L26.0348 2.25512Z" fill="#4D3102"/>
<path d="M34.3618 1.98995C34.0967 1.72485 33.832 1.72485 33.5673 1.98995L32.3759 3.18225C32.1112 3.44692 32.1112 3.71201 32.3759 3.97668L33.5673 5.16897C33.832 5.43407 34.0967 5.43407 34.3618 5.16897L35.5528 3.97668C35.8179 3.71201 35.8179 3.44692 35.5528 3.18225L34.3618 1.98995Z" fill="#4D3102"/>
<path d="M42.7122 1.72374C42.4039 1.41453 42.0942 1.41453 41.7855 1.72374L40.396 3.11454C40.0872 3.42332 40.0872 3.73296 40.396 4.04174L41.7855 5.43297C42.0942 5.74174 42.4039 5.74174 42.7122 5.43297L44.1022 4.04174C44.4108 3.73296 44.4108 3.42332 44.1022 3.11454L42.7122 1.72374Z" fill="#4D3102"/>
<path d="M51.0463 1.45946C50.693 1.10614 50.3406 1.10614 49.9873 1.45946L48.3989 3.04919C48.0456 3.40294 48.0456 3.7554 48.3989 4.10915L49.9873 5.69888C50.3406 6.0522 50.693 6.0522 51.0463 5.69888L52.6347 4.10915C52.988 3.7554 52.988 3.40294 52.6347 3.04919L51.0463 1.45946Z" fill="#4D3102"/>
<path d="M59.3888 1.19141C58.9917 0.79398 58.5945 0.79398 58.1975 1.19141L56.4104 2.97964C56.0133 3.37707 56.0133 3.7745 56.4104 4.17193L58.1975 5.96059C58.5945 6.35802 58.9917 6.35802 59.3888 5.96059L61.1758 4.17193C61.5729 3.7745 61.5729 3.37707 61.1758 2.97964L59.3888 1.19141Z" fill="#4D3102"/>
<path d="M67.7234 0.932888C67.2824 0.491778 66.8406 0.491778 66.3997 0.932888L64.4141 2.92005C63.9732 3.36159 63.9732 3.80356 64.4141 4.24467L66.3997 6.23183C66.8406 6.67337 67.2824 6.67337 67.7234 6.23183L69.709 4.24467C70.1499 3.80356 70.1499 3.36159 69.709 2.92005L67.7234 0.932888Z" fill="#4D3102"/>
<path d="M76.0653 0.665123C75.5797 0.179036 75.0949 0.179036 74.6093 0.665123L72.4251 2.85078C71.9395 3.33687 71.9395 3.82209 72.4251 4.30817L74.6093 6.49383C75.0949 6.97992 75.5797 6.97992 76.0653 6.49383L78.2494 4.30817C78.7351 3.82209 78.7351 3.33687 78.2494 2.85078L76.0653 0.665123Z" fill="#4D3102"/>
<path d="M84.3999 0.397944C83.8704 -0.131821 83.3409 -0.131821 82.8115 0.397944L80.4288 2.78253C79.8993 3.31273 79.8993 3.84249 80.4288 4.37226L82.8115 6.75685C83.3409 7.28662 83.8704 7.28662 84.3999 6.75685L86.7826 4.37226C87.3121 3.84249 87.3121 3.31273 86.7826 2.78253L84.3999 0.397944Z" fill="#4D3102"/>
<path d="M1.00813 11.3297C0.919946 11.2411 0.83219 11.2411 0.74357 11.3297L0.346723 11.7269C0.258102 11.8156 0.258102 11.9033 0.346723 11.9919L0.743569 12.3892C0.83219 12.4778 0.919946 12.4778 1.00813 12.3892L1.40542 11.9919C1.4936 11.9033 1.4936 11.8156 1.40542 11.7269L1.00813 11.3297Z" fill="#4D3102"/>
<path d="M9.35062 11.0646C9.21834 10.9319 9.08605 10.9319 8.95377 11.0646L8.3585 11.6603C8.22621 11.7926 8.22621 11.9253 8.3585 12.0576L8.95377 12.6537C9.08605 12.786 9.21834 12.786 9.35062 12.6537L9.94632 12.0576C10.0786 11.9253 10.0786 11.7926 9.94632 11.6603L9.35062 11.0646Z" fill="#4D3102"/>
<path d="M17.6856 10.7987C17.5092 10.6228 17.3324 10.6228 17.1565 10.7987L16.3623 11.5933C16.1864 11.7697 16.1864 11.9469 16.3623 12.1233L17.1565 12.9178C17.3324 13.0938 17.5092 13.0938 17.6856 12.9178L18.4793 12.1233C18.6557 11.9469 18.6557 11.7697 18.4793 11.5933L17.6856 10.7987Z" fill="#4D3102"/>
<path d="M26.0348 10.5311C25.8138 10.3096 25.5941 10.3096 25.3731 10.5311L24.3802 11.5244C24.1592 11.7454 24.1592 11.9655 24.3802 12.187L25.3731 13.1803C25.5941 13.4013 25.8138 13.4013 26.0348 13.1803L27.0277 12.187C27.2487 11.9655 27.2487 11.7454 27.0277 11.5244L26.0348 10.5311Z" fill="#4D3102"/>
<path d="M34.3618 10.2695C34.0967 10.0044 33.832 10.0044 33.5673 10.2695L32.3759 11.4618C32.1112 11.7269 32.1112 11.9916 32.3759 12.2567L33.5673 13.449C33.832 13.7136 34.0967 13.7136 34.3618 13.449L35.5528 12.2567C35.8179 11.9916 35.8179 11.7269 35.5528 11.4618L34.3618 10.2695Z" fill="#4D3102"/>
<path d="M42.7122 10.0034C42.4039 9.69464 42.0942 9.69464 41.7855 10.0034L40.396 11.3942C40.0872 11.703 40.0872 12.0126 40.396 12.3218L41.7855 13.7126C42.0942 14.0214 42.4039 14.0214 42.7122 13.7126L44.1022 12.3218C44.4108 12.0126 44.4108 11.703 44.1022 11.3942L42.7122 10.0034Z" fill="#4D3102"/>
<path d="M51.0463 9.73923C50.693 9.38548 50.3406 9.38548 49.9873 9.73923L48.3989 11.329C48.0456 11.6823 48.0456 12.0352 48.3989 12.3885L49.9873 13.9782C50.3406 14.332 50.693 14.332 51.0463 13.9782L52.6347 12.3885C52.988 12.0352 52.988 11.6823 52.6347 11.329L51.0463 9.73923Z" fill="#4D3102"/>
<path d="M59.3888 9.47315C58.9917 9.07572 58.5945 9.07572 58.1975 9.47315L56.4104 11.2618C56.0133 11.6592 56.0133 12.0567 56.4104 12.4541L58.1975 14.2423C58.5945 14.6398 58.9917 14.6398 59.3888 14.2423L61.1758 12.4541C61.5729 12.0567 61.5729 11.6592 61.1758 11.2618L59.3888 9.47315Z" fill="#4D3102"/>
<path d="M67.7234 9.20799C67.2824 8.76688 66.8406 8.76688 66.3997 9.20799L64.4141 11.1951C63.9732 11.6363 63.9732 12.0787 64.4141 12.5198L66.3997 14.5069C66.8406 14.948 67.2824 14.948 67.7234 14.5069L69.709 12.5198C70.1499 12.0787 70.1499 11.6363 69.709 11.1951L67.7234 9.20799Z" fill="#4D3102"/>
<path d="M76.0653 8.94319C75.5797 8.45711 75.0949 8.45711 74.6093 8.94319L72.4251 11.1289C71.9395 11.6149 71.9395 12.1002 72.4251 12.5863L74.6093 14.7719C75.0949 15.258 75.5797 15.258 76.0653 14.7719L78.2494 12.5863C78.7351 12.1002 78.7351 11.6149 78.2494 11.1289L76.0653 8.94319Z" fill="#4D3102"/>
<path d="M84.3999 8.67967C83.8704 8.14947 83.3409 8.14947 82.8115 8.67967L80.4288 11.0643C79.8993 11.594 79.8993 12.1238 80.4288 12.6536L82.8115 15.0381C83.3409 15.5683 83.8704 15.5683 84.3999 15.0381L86.7826 12.6536C87.3121 12.1238 87.3121 11.594 86.7826 11.0643L84.3999 8.67967Z" fill="#4D3102"/>
<path d="M1.00813 19.6063C0.919946 19.5177 0.83219 19.5177 0.74357 19.6063L0.346723 20.0036C0.258102 20.0922 0.258102 20.1799 0.346723 20.2686L0.743569 20.6658C0.83219 20.7545 0.919946 20.7545 1.00813 20.6658L1.40542 20.2686C1.4936 20.1799 1.4936 20.0922 1.40542 20.0036L1.00813 19.6063Z" fill="#4D3102"/>
<path d="M9.35062 19.3473C9.21834 19.215 9.08605 19.215 8.95377 19.3473L8.3585 19.943C8.22621 20.0757 8.22621 20.208 8.3585 20.3403L8.95377 20.9364C9.08605 21.0687 9.21834 21.0687 9.35062 20.9364L9.94632 20.3403C10.0786 20.208 10.0786 20.0757 9.94632 19.943L9.35062 19.3473Z" fill="#4D3102"/>
<path d="M17.6856 19.0795C17.5092 18.9031 17.3324 18.9031 17.1565 19.0795L16.3623 19.874C16.1864 20.05 16.1864 20.2272 16.3623 20.4036L17.1565 21.1982C17.3324 21.3745 17.5092 21.3745 17.6856 21.1982L18.4793 20.4036C18.6557 20.2272 18.6557 20.05 18.4793 19.874L17.6856 19.0795Z" fill="#4D3102"/>
<path d="M26.0348 18.8148C25.8138 18.5938 25.5941 18.5938 25.3731 18.8148L24.3802 19.8081C24.1592 20.0291 24.1592 20.2497 24.3802 20.4707L25.3731 21.464C25.5941 21.685 25.8138 21.685 26.0348 21.464L27.0277 20.4707C27.2487 20.2497 27.2487 20.0291 27.0277 19.8081L26.0348 18.8148Z" fill="#4D3102"/>
<path d="M34.3618 18.5467C34.0967 18.2816 33.832 18.2816 33.5673 18.5467L32.3759 19.7386C32.1112 20.0037 32.1112 20.2688 32.3759 20.5334L33.5673 21.7257C33.832 21.9908 34.0967 21.9908 34.3618 21.7257L35.5528 20.5334C35.8179 20.2688 35.8179 20.0037 35.5528 19.7386L34.3618 18.5467Z" fill="#4D3102"/>
<path d="M42.7122 18.2842C42.4039 17.9754 42.0942 17.9754 41.7855 18.2842L40.396 19.675C40.0872 19.9842 40.0872 20.2938 40.396 20.6026L41.7855 21.9934C42.0942 22.3022 42.4039 22.3022 42.7122 21.9934L44.1022 20.6026C44.4108 20.2938 44.4108 19.9842 44.1022 19.675L42.7122 18.2842Z" fill="#4D3102"/>
<path d="M51.0463 18.02C50.693 17.6667 50.3406 17.6667 49.9873 18.02L48.3989 19.6097C48.0456 19.9635 48.0456 20.3159 48.3989 20.6697L49.9873 22.259C50.3406 22.6127 50.693 22.6127 51.0463 22.259L52.6347 20.6697C52.988 20.3159 52.988 19.9635 52.6347 19.6097L51.0463 18.02Z" fill="#4D3102"/>
<path d="M59.3888 17.7542C58.9917 17.3568 58.5945 17.3568 58.1975 17.7542L56.4104 19.5424C56.0133 19.9399 56.0133 20.3373 56.4104 20.7347L58.1975 22.523C58.5945 22.9204 58.9917 22.9204 59.3888 22.523L61.1758 20.7347C61.5729 20.3373 61.5729 19.9399 61.1758 19.5424L59.3888 17.7542Z" fill="#4D3102"/>
<path d="M67.7234 17.4893C67.2824 17.0482 66.8406 17.0482 66.3997 17.4893L64.4141 19.4764C63.9732 19.918 63.9732 20.36 64.4141 20.8015L66.3997 22.7882C66.8406 23.2298 67.2824 23.2298 67.7234 22.7882L69.709 20.8015C70.1499 20.36 70.1499 19.918 69.709 19.4764L67.7234 17.4893Z" fill="#4D3102"/>
<path d="M76.0653 17.224C75.5797 16.7379 75.0949 16.7379 74.6093 17.224L72.4251 19.4096C71.9395 19.8957 71.9395 20.3809 72.4251 20.867L74.6093 23.0527C75.0949 23.5388 75.5797 23.5388 76.0653 23.0527L78.2494 20.867C78.7351 20.3809 78.7351 19.8957 78.2494 19.4096L76.0653 17.224Z" fill="#4D3102"/>
<path d="M84.3999 16.9582C83.8704 16.4285 83.3409 16.4285 82.8115 16.9582L80.4288 19.3428C79.8993 19.8726 79.8993 20.4028 80.4288 20.9326L82.8115 23.3172C83.3409 23.8469 83.8704 23.8469 84.3999 23.3172L86.7826 20.9326C87.3121 20.4028 87.3121 19.8726 86.7826 19.3428L84.3999 16.9582Z" fill="#4D3102"/>
<path d="M1.00813 27.8875C0.919946 27.7989 0.83219 27.7989 0.74357 27.8875L0.346723 28.2847C0.258102 28.3729 0.258102 28.4607 0.346723 28.5493L0.743569 28.9466C0.83219 29.0352 0.919946 29.0352 1.00813 28.9466L1.40542 28.5493C1.4936 28.4607 1.4936 28.3729 1.40542 28.2847L1.00813 27.8875Z" fill="#4D3102"/>
<path d="M9.35062 27.6215C9.21834 27.4888 9.08605 27.4888 8.95377 27.6215L8.3585 28.2172C8.22621 28.3499 8.22621 28.4822 8.3585 28.6145L8.95377 29.2106C9.08605 29.3429 9.21834 29.3429 9.35062 29.2106L9.94632 28.6145C10.0786 28.4822 10.0786 28.3499 9.94632 28.2172L9.35062 27.6215Z" fill="#4D3102"/>
<path d="M17.6856 27.3562C17.5092 27.1798 17.3324 27.1798 17.1565 27.3562L16.3623 28.1508C16.1864 28.3271 16.1864 28.5044 16.3623 28.6803L17.1565 29.4749C17.3324 29.6513 17.5092 29.6513 17.6856 29.4749L18.4793 28.6803C18.6557 28.5044 18.6557 28.3271 18.4793 28.1508L17.6856 27.3562Z" fill="#4D3102"/>
<path d="M26.0348 27.0945C25.8138 26.8735 25.5941 26.8735 25.3731 27.0945L24.3802 28.0883C24.1592 28.3093 24.1592 28.5294 24.3802 28.7504L25.3731 29.7442C25.5941 29.9652 25.8138 29.9652 26.0348 29.7442L27.0277 28.7504C27.2487 28.5294 27.2487 28.3093 27.0277 28.0883L26.0348 27.0945Z" fill="#4D3102"/>
<path d="M34.3618 26.8283C34.0967 26.5632 33.832 26.5632 33.5673 26.8283L32.3759 28.0206C32.1112 28.2853 32.1112 28.5504 32.3759 28.8155L33.5673 30.0078C33.832 30.2725 34.0967 30.2725 34.3618 30.0078L35.5528 28.8155C35.8179 28.5504 35.8179 28.2853 35.5528 28.0206L34.3618 26.8283Z" fill="#4D3102"/>
<path d="M42.7122 26.5598C42.4039 26.251 42.0942 26.251 41.7855 26.5598L40.396 27.951C40.0872 28.2598 40.0872 28.5695 40.396 28.8782L41.7855 30.269C42.0942 30.5778 42.4039 30.5778 42.7122 30.269L44.1022 28.8782C44.4108 28.5695 44.4108 28.2598 44.1022 27.951L42.7122 26.5598Z" fill="#4D3102"/>
<path d="M51.0463 26.2984C50.693 25.9446 50.3406 25.9446 49.9873 26.2984L48.3989 27.8877C48.0456 28.2414 48.0456 28.5943 48.3989 28.9476L49.9873 30.5374C50.3406 30.8907 50.693 30.8907 51.0463 30.5374L52.6347 28.9476C52.988 28.5943 52.988 28.2414 52.6347 27.8877L51.0463 26.2984Z" fill="#4D3102"/>
<path d="M59.3888 26.0344C58.9917 25.637 58.5945 25.637 58.1975 26.0344L56.4104 27.8231C56.0133 28.2205 56.0133 28.6175 56.4104 29.015L58.1975 30.8036C58.5945 31.201 58.9917 31.201 59.3888 30.8036L61.1758 29.015C61.5729 28.6175 61.5729 28.2205 61.1758 27.8231L59.3888 26.0344Z" fill="#4D3102"/>
<path d="M67.7234 25.7688C67.2824 25.3272 66.8406 25.3272 66.3997 25.7688L64.4141 27.7559C63.9732 28.197 63.9732 28.639 64.4141 29.0806L66.3997 31.0677C66.8406 31.5088 67.2824 31.5088 67.7234 31.0677L69.709 29.0806C70.1499 28.639 70.1499 28.197 69.709 27.7559L67.7234 25.7688Z" fill="#4D3102"/>
<path d="M76.0653 25.4996C75.5797 25.0135 75.0949 25.0135 74.6093 25.4996L72.4251 27.6857C71.9395 28.1713 71.9395 28.6566 72.4251 29.1426L74.6093 31.3283C75.0949 31.8144 75.5797 31.8144 76.0653 31.3283L78.2494 29.1426C78.7351 28.6566 78.7351 28.1713 78.2494 27.6857L76.0653 25.4996Z" fill="#4D3102"/>
<path d="M84.3999 25.2394C83.8704 24.7092 83.3409 24.7092 82.8115 25.2394L80.4288 27.6236C79.8993 28.1538 79.8993 28.6836 80.4288 29.2133L82.8115 31.5979C83.3409 32.1277 83.8704 32.1277 84.3999 31.5979L86.7826 29.2133C87.3121 28.6836 87.3121 28.1538 86.7826 27.6236L84.3999 25.2394Z" fill="#4D3102"/>
<path d="M1.00813 36.1666C0.919946 36.078 0.83219 36.078 0.74357 36.1666L0.346723 36.5639C0.258102 36.6525 0.258102 36.7403 0.346723 36.8285L0.743569 37.2258C0.83219 37.3144 0.919946 37.3144 1.00813 37.2258L1.40542 36.8285C1.4936 36.7403 1.4936 36.6525 1.40542 36.5639L1.00813 36.1666Z" fill="#4D3102"/>
<path d="M9.35062 35.9031C9.21834 35.7708 9.08605 35.7708 8.95377 35.9031L8.3585 36.4992C8.22621 36.6315 8.22621 36.7638 8.3585 36.8965L8.95377 37.4922C9.08605 37.6245 9.21834 37.6245 9.35062 37.4922L9.94632 36.8965C10.0786 36.7638 10.0786 36.6315 9.94632 36.4992L9.35062 35.9031Z" fill="#4D3102"/>
<path d="M17.6856 35.6369C17.5092 35.4605 17.3324 35.4605 17.1565 35.6369L16.3623 36.4314C16.1864 36.6074 16.1864 36.7846 16.3623 36.961L17.1565 37.7555C17.3324 37.9319 17.5092 37.9319 17.6856 37.7555L18.4793 36.961C18.6557 36.7846 18.6557 36.6074 18.4793 36.4314L17.6856 35.6369Z" fill="#4D3102"/>
<path d="M26.0348 35.3707C25.8138 35.1497 25.5941 35.1497 25.3731 35.3707L24.3802 36.364C24.1592 36.585 24.1592 36.8056 24.3802 37.0266L25.3731 38.0199C25.5941 38.2409 25.8138 38.2409 26.0348 38.0199L27.0277 37.0266C27.2487 36.8056 27.2487 36.585 27.0277 36.364L26.0348 35.3707Z" fill="#4D3102"/>
<path d="M34.3618 35.1106C34.0967 34.8455 33.832 34.8455 33.5673 35.1106L32.3759 36.3029C32.1112 36.568 32.1112 36.8327 32.3759 37.0978L33.5673 38.2901C33.832 38.5552 34.0967 38.5552 34.3618 38.2901L35.5528 37.0978C35.8179 36.8327 35.8179 36.568 35.5528 36.3029L34.3618 35.1106Z" fill="#4D3102"/>
<path d="M42.7122 34.844C42.4039 34.5348 42.0942 34.5348 41.7855 34.844L40.396 36.2348C40.0872 36.5436 40.0872 36.8532 40.396 37.162L41.7855 38.5532C42.0942 38.862 42.4039 38.862 42.7122 38.5532L44.1022 37.162C44.4108 36.8532 44.4108 36.5436 44.1022 36.2348L42.7122 34.844Z" fill="#4D3102"/>
<path d="M51.0463 34.5758C50.693 34.2225 50.3406 34.2225 49.9873 34.5758L48.3989 36.1655C48.0456 36.5188 48.0456 36.8717 48.3989 37.2255L49.9873 38.8148C50.3406 39.1685 50.693 39.1685 51.0463 38.8148L52.6347 37.2255C52.988 36.8717 52.988 36.5188 52.6347 36.1655L51.0463 34.5758Z" fill="#4D3102"/>
<path d="M59.3888 34.3116C58.9917 33.9142 58.5945 33.9142 58.1975 34.3116L56.4104 36.0998C56.0133 36.4973 56.0133 36.8947 56.4104 37.2921L58.1975 39.0803C58.5945 39.4778 58.9917 39.4778 59.3888 39.0803L61.1758 37.2921C61.5729 36.8947 61.5729 36.4973 61.1758 36.0998L59.3888 34.3116Z" fill="#4D3102"/>
<path d="M67.7234 34.0491C67.2824 33.608 66.8406 33.608 66.3997 34.0491L64.4141 36.0363C63.9732 36.4774 63.9732 36.9198 64.4141 37.3609L66.3997 39.348C66.8406 39.7896 67.2824 39.7896 67.7234 39.348L69.709 37.3609C70.1499 36.9198 70.1499 36.4774 69.709 36.0363L67.7234 34.0491Z" fill="#4D3102"/>
<path d="M76.0653 33.7852C75.5797 33.2992 75.0949 33.2992 74.6093 33.7852L72.4251 35.9713C71.9395 36.457 71.9395 36.9422 72.4251 37.4283L74.6093 39.614C75.0949 40.1 75.5797 40.1 76.0653 39.614L78.2494 37.4283C78.7351 36.9422 78.7351 36.457 78.2494 35.9713L76.0653 33.7852Z" fill="#4D3102"/>
<path d="M84.3999 33.5161C83.8704 32.9863 83.3409 32.9863 82.8115 33.5161L80.4288 35.9007C79.8993 36.4305 79.8993 36.9607 80.4288 37.4904L82.8115 39.875C83.3409 40.4048 83.8704 40.4048 84.3999 39.875L86.7826 37.4904C87.3121 36.9607 87.3121 36.4305 86.7826 35.9007L84.3999 33.5161Z" fill="#4D3102"/>
<path d="M1.00813 44.4478C0.919946 44.3592 0.83219 44.3592 0.74357 44.4478L0.346723 44.8451C0.258102 44.9337 0.258102 45.0215 0.346723 45.1101L0.743569 45.5074C0.83219 45.596 0.919946 45.596 1.00813 45.5074L1.40542 45.1101C1.4936 45.0215 1.4936 44.9337 1.40542 44.8451L1.00813 44.4478Z" fill="#4D3102"/>
<path d="M9.35062 44.1818C9.21834 44.0491 9.08605 44.0491 8.95377 44.1818L8.3585 44.7775C8.22621 44.9098 8.22621 45.0425 8.3585 45.1748L8.95377 45.7709C9.08605 45.9032 9.21834 45.9032 9.35062 45.7709L9.94632 45.1748C10.0786 45.0425 10.0786 44.9098 9.94632 44.7775L9.35062 44.1818Z" fill="#4D3102"/>
<path d="M17.6856 43.916C17.5092 43.7397 17.3324 43.7397 17.1565 43.916L16.3623 44.7106C16.1864 44.887 16.1864 45.0638 16.3623 45.2402L17.1565 46.0347C17.3324 46.2111 17.5092 46.2111 17.6856 46.0347L18.4793 45.2402C18.6557 45.0638 18.6557 44.887 18.4793 44.7106L17.6856 43.916Z" fill="#4D3102"/>
<path d="M26.0348 43.6519C25.8138 43.4309 25.5941 43.4309 25.3731 43.6519L24.3802 44.6456C24.1592 44.8666 24.1592 45.0868 24.3802 45.3077L25.3731 46.3015C25.5941 46.5225 25.8138 46.5225 26.0348 46.3015L27.0277 45.3077C27.2487 45.0868 27.2487 44.8666 27.0277 44.6456L26.0348 43.6519Z" fill="#4D3102"/>
<path d="M34.3618 43.3857C34.0967 43.1206 33.832 43.1206 33.5673 43.3857L32.3759 44.578C32.1112 44.8426 32.1112 45.1077 32.3759 45.3728L33.5673 46.5651C33.832 46.8299 34.0967 46.8299 34.3618 46.5651L35.5528 45.3728C35.8179 45.1077 35.8179 44.8426 35.5528 44.578L34.3618 43.3857Z" fill="#4D3102"/>
<path d="M42.7122 43.1257C42.4039 42.8169 42.0942 42.8169 41.7855 43.1257L40.396 44.5165C40.0872 44.8253 40.0872 45.1349 40.396 45.4437L41.7855 46.8348C42.0942 47.1436 42.4039 47.1436 42.7122 46.8348L44.1022 45.4437C44.4108 45.1349 44.4108 44.8253 44.1022 44.5165L42.7122 43.1257Z" fill="#4D3102"/>
<path d="M51.0463 42.8556C50.693 42.5019 50.3406 42.5019 49.9873 42.8556L48.3989 44.4449C48.0456 44.7987 48.0456 45.1516 48.3989 45.5049L49.9873 47.0946C50.3406 47.4481 50.693 47.4481 51.0463 47.0946L52.6347 45.5049C52.988 45.1516 52.988 44.7987 52.6347 44.4449L51.0463 42.8556Z" fill="#4D3102"/>
<path d="M59.3888 42.5894C58.9917 42.192 58.5945 42.192 58.1975 42.5894L56.4104 44.3781C56.0133 44.7755 56.0133 45.173 56.4104 45.5704L58.1975 47.3586C58.5945 47.756 58.9917 47.756 59.3888 47.3586L61.1758 45.5704C61.5729 45.173 61.5729 44.7755 61.1758 44.3781L59.3888 42.5894Z" fill="#4D3102"/>
<path d="M67.7234 42.3251C67.2824 41.8836 66.8406 41.8836 66.3997 42.3251L64.4141 44.3123C63.9732 44.7534 63.9732 45.1954 64.4141 45.6369L66.3997 47.624C66.8406 48.0653 67.2824 48.0653 67.7234 47.624L69.709 45.6369C70.1499 45.1954 70.1499 44.7534 69.709 44.3123L67.7234 42.3251Z" fill="#4D3102"/>
<path d="M76.0653 42.0647C75.5797 41.5791 75.0949 41.5791 74.6093 42.0647L72.4251 44.2508C71.9395 44.7369 71.9395 45.2217 72.4251 45.7078L74.6093 47.8937C75.0949 48.3797 75.5797 48.3797 76.0653 47.8937L78.2494 45.7078C78.7351 45.2217 78.7351 44.7369 78.2494 44.2508L76.0653 42.0647Z" fill="#4D3102"/>
<path d="M84.3999 41.7978C83.8704 41.268 83.3409 41.268 82.8115 41.7978L80.4288 44.1824C79.8993 44.7126 79.8993 45.2423 80.4288 45.7721L82.8115 48.1567C83.3409 48.6866 83.8704 48.6866 84.3999 48.1567L86.7826 45.7721C87.3121 45.2423 87.3121 44.7126 86.7826 44.1824L84.3999 41.7978Z" fill="#4D3102"/>
<path d="M1.00813 52.7277C0.919946 52.6392 0.83219 52.6392 0.74357 52.7277L0.346723 53.125C0.258102 53.2135 0.258102 53.3013 0.346723 53.3898L0.743569 53.7871C0.83219 53.8756 0.919946 53.8756 1.00813 53.7871L1.40542 53.3898C1.4936 53.3013 1.4936 53.2135 1.40542 53.125L1.00813 52.7277Z" fill="#4D3102"/>
<path d="M9.35062 52.4614C9.21834 52.329 9.08605 52.329 8.95377 52.4614L8.3585 53.0573C8.22621 53.1897 8.22621 53.3221 8.3585 53.4546L8.95377 54.0505C9.08605 54.1829 9.21834 54.1829 9.35062 54.0505L9.94632 53.4546C10.0786 53.3221 10.0786 53.1897 9.94632 53.0573L9.35062 52.4614Z" fill="#4D3102"/>
<path d="M17.6856 52.1976C17.5092 52.0213 17.3324 52.0213 17.1565 52.1976L16.3623 52.9921C16.1864 53.1684 16.1864 53.3455 16.3623 53.5218L17.1565 54.3164C17.3324 54.4927 17.5092 54.4927 17.6856 54.3164L18.4793 53.5218C18.6557 53.3455 18.6557 53.1684 18.4793 52.9921L17.6856 52.1976Z" fill="#4D3102"/>
<path d="M26.0348 51.9317C25.8138 51.7106 25.5941 51.7106 25.3731 51.9317L24.3802 52.9252C24.1592 53.1463 24.1592 53.3665 24.3802 53.5876L25.3731 54.5812C25.5941 54.8022 25.8138 54.8022 26.0348 54.5812L27.0277 53.5876C27.2487 53.3665 27.2487 53.1463 27.0277 52.9252L26.0348 51.9317Z" fill="#4D3102"/>
<path d="M34.3618 51.6648C34.0967 51.3998 33.832 51.3998 33.5673 51.6648L32.3759 52.857C32.1112 53.122 32.1112 53.3869 32.3759 53.6519L33.5673 54.8441C33.832 55.1091 34.0967 55.1091 34.3618 54.8441L35.5528 53.6519C35.8179 53.3869 35.8179 53.122 35.5528 52.857L34.3618 51.6648Z" fill="#4D3102"/>
<path d="M42.7122 51.4013C42.4039 51.0925 42.0942 51.0925 41.7855 51.4013L40.396 52.7923C40.0872 53.1011 40.0872 53.4107 40.396 53.7195L41.7855 55.1105C42.0942 55.4194 42.4039 55.4194 42.7122 55.1105L44.1022 53.7195C44.4108 53.4107 44.4108 53.1011 44.1022 52.7923L42.7122 51.4013Z" fill="#4D3102"/>
<path d="M51.0463 51.1356C50.693 50.782 50.3406 50.782 49.9873 51.1356L48.3989 52.7253C48.0456 53.0788 48.0456 53.4315 48.3989 53.7851L49.9873 55.3747C50.3406 55.7283 50.693 55.7283 51.0463 55.3747L52.6347 53.7851C52.988 53.4315 52.988 53.0788 52.6347 52.7253L51.0463 51.1356Z" fill="#4D3102"/>
<path d="M59.3888 50.8702C58.9917 50.4727 58.5945 50.4727 58.1975 50.8702L56.4104 52.6585C56.0133 53.056 56.0133 53.4534 56.4104 53.8508L58.1975 55.6392C58.5945 56.0366 58.9917 56.0366 59.3888 55.6392L61.1758 53.8508C61.5729 53.4534 61.5729 53.056 61.1758 52.6585L59.3888 50.8702Z" fill="#4D3102"/>
<path d="M67.7234 50.6067C67.2824 50.1653 66.8406 50.1653 66.3997 50.6067L64.4141 52.5937C63.9732 53.0351 63.9732 53.4772 64.4141 53.9185L66.3997 55.9056C66.8406 56.3469 67.2824 56.3469 67.7234 55.9056L69.709 53.9185C70.1499 53.4772 70.1499 53.0351 69.709 52.5937L67.7234 50.6067Z" fill="#4D3102"/>
<path d="M76.0653 50.34C75.5797 49.854 75.0949 49.854 74.6093 50.34L72.4251 52.5258C71.9395 53.0118 71.9395 53.497 72.4251 53.983L74.6093 56.1688C75.0949 56.6548 75.5797 56.6548 76.0653 56.1688L78.2494 53.983C78.7351 53.497 78.7351 53.0118 78.2494 52.5258L76.0653 50.34Z" fill="#4D3102"/>
<path d="M84.3999 50.0786C83.8704 49.5487 83.3409 49.5487 82.8115 50.0786L80.4288 52.4631C79.8993 52.993 79.8993 53.5229 80.4288 54.0528L82.8115 56.4373C83.3409 56.9672 83.8704 56.9672 84.3999 56.4373L86.7826 54.0528C87.3121 53.5229 87.3121 52.993 86.7826 52.4631L84.3999 50.0786Z" fill="#4D3102"/>
<path d="M1.00813 61.0054C0.919946 60.9169 0.83219 60.9169 0.74357 61.0054L0.346723 61.4027C0.258102 61.4913 0.258102 61.579 0.346723 61.6675L0.743569 62.0648C0.83219 62.1534 0.919946 62.1534 1.00813 62.0648L1.40542 61.6675C1.4936 61.579 1.4936 61.4913 1.40542 61.4027L1.00813 61.0054Z" fill="#4D3102"/>
<path d="M9.35062 60.7417C9.21834 60.6093 9.08605 60.6093 8.95377 60.7417L8.3585 61.3376C8.22621 61.47 8.22621 61.6024 8.3585 61.7348L8.95377 62.3307C9.08605 62.4632 9.21834 62.4632 9.35062 62.3307L9.94632 61.7348C10.0786 61.6024 10.0786 61.47 9.94632 61.3376L9.35062 60.7417Z" fill="#4D3102"/>
<path d="M17.6856 60.4763C17.5092 60.3 17.3324 60.3 17.1565 60.4763L16.3623 61.2709C16.1864 61.4472 16.1864 61.6243 16.3623 61.8006L17.1565 62.5951C17.3324 62.7714 17.5092 62.7714 17.6856 62.5951L18.4793 61.8006C18.6557 61.6243 18.6557 61.4472 18.4793 61.2709L17.6856 60.4763Z" fill="#4D3102"/>
<path d="M26.0348 60.2108C25.8138 59.9898 25.5941 59.9898 25.3731 60.2108L24.3802 61.2044C24.1592 61.4255 24.1592 61.6457 24.3802 61.8668L25.3731 62.8603C25.5941 63.0814 25.8138 63.0814 26.0348 62.8603L27.0277 61.8668C27.2487 61.6457 27.2487 61.4255 27.0277 61.2044L26.0348 60.2108Z" fill="#4D3102"/>
<path d="M34.3618 59.9454C34.0967 59.6805 33.832 59.6805 33.5673 59.9454L32.3759 61.1377C32.1112 61.4026 32.1112 61.6676 32.3759 61.9325L33.5673 63.1248C33.832 63.3897 34.0967 63.3897 34.3618 63.1248L35.5528 61.9325C35.8179 61.6676 35.8179 61.4026 35.5528 61.1377L34.3618 59.9454Z" fill="#4D3102"/>
<path d="M42.7122 59.6798C42.4039 59.371 42.0942 59.371 41.7855 59.6798L40.396 61.0708C40.0872 61.3796 40.0872 61.6893 40.396 61.9981L41.7855 63.3891C42.0942 63.6979 42.4039 63.6979 42.7122 63.3891L44.1022 61.9981C44.4108 61.6893 44.4108 61.3796 44.1022 61.0708L42.7122 59.6798Z" fill="#4D3102"/>
<path d="M51.0463 59.4173C50.693 59.0638 50.3406 59.0638 49.9873 59.4173L48.3989 61.007C48.0456 61.3605 48.0456 61.7133 48.3989 62.0668L49.9873 63.6565C50.3406 64.01 50.693 64.01 51.0463 63.6565L52.6347 62.0668C52.988 61.7133 52.988 61.3605 52.6347 61.007L51.0463 59.4173Z" fill="#4D3102"/>
<path d="M59.3888 59.1518C58.9917 58.7543 58.5945 58.7543 58.1975 59.1518L56.4104 60.9402C56.0133 61.3376 56.0133 61.735 56.4104 62.1324L58.1975 63.9208C58.5945 64.3182 58.9917 64.3182 59.3888 63.9208L61.1758 62.1324C61.5729 61.735 61.5729 61.3376 61.1758 60.9402L59.3888 59.1518Z" fill="#4D3102"/>
<path d="M67.7234 58.8849C67.2824 58.4436 66.8406 58.4436 66.3997 58.8849L64.4141 60.872C63.9732 61.3133 63.9732 61.7554 64.4141 62.1967L66.3997 64.1838C66.8406 64.6251 67.2824 64.6251 67.7234 64.1838L69.709 62.1967C70.1499 61.7554 70.1499 61.3133 69.709 60.872L67.7234 58.8849Z" fill="#4D3102"/>
<path d="M76.0653 58.6217C75.5797 58.1357 75.0949 58.1357 74.6093 58.6217L72.4251 60.8076C71.9395 61.2936 71.9395 61.7787 72.4251 62.2647L74.6093 64.4506C75.0949 64.9366 75.5797 64.9366 76.0653 64.4506L78.2494 62.2647C78.7351 61.7787 78.7351 61.2936 78.2494 60.8076L76.0653 58.6217Z" fill="#4D3102"/>
<path d="M84.3999 58.3552C83.8704 57.8253 83.3409 57.8253 82.8115 58.3552L80.4288 60.7397C79.8993 61.2696 79.8993 61.7995 80.4288 62.3294L82.8115 64.7139C83.3409 65.2438 83.8704 65.2438 84.3999 64.7139L86.7826 62.3294C87.3121 61.7995 87.3121 61.2696 86.7826 60.7397L84.3999 58.3552Z" fill="#4D3102"/>
<path d="M1.00813 69.2866C0.919946 69.198 0.83219 69.198 0.74357 69.2866L0.346723 69.6838C0.258102 69.7724 0.258102 69.8601 0.346723 69.9487L0.743569 70.3459C0.83219 70.4345 0.919946 70.4345 1.00813 70.3459L1.40542 69.9487C1.4936 69.8601 1.4936 69.7724 1.40542 69.6838L1.00813 69.2866Z" fill="#4D3102"/>
<path d="M9.35062 69.0213C9.21834 68.8889 9.08605 68.8889 8.95377 69.0213L8.3585 69.6172C8.22621 69.7496 8.22621 69.8821 8.3585 70.0145L8.95377 70.6104C9.08605 70.7428 9.21834 70.7428 9.35062 70.6104L9.94632 70.0145C10.0786 69.8821 10.0786 69.7496 9.94632 69.6172L9.35062 69.0213Z" fill="#4D3102"/>
<path d="M17.6856 68.755C17.5092 68.5787 17.3324 68.5787 17.1565 68.755L16.3623 69.5496C16.1864 69.7258 16.1864 69.903 16.3623 70.0792L17.1565 70.8738C17.3324 71.0501 17.5092 71.0501 17.6856 70.8738L18.4793 70.0792C18.6557 69.903 18.6557 69.7258 18.4793 69.5496L17.6856 68.755Z" fill="#4D3102"/>
<path d="M26.0348 68.4905C25.8138 68.2694 25.5941 68.2694 25.3731 68.4905L24.3802 69.484C24.1592 69.7051 24.1592 69.9254 24.3802 70.1464L25.3731 71.14C25.5941 71.3611 25.8138 71.3611 26.0348 71.14L27.0277 70.1464C27.2487 69.9254 27.2487 69.7051 27.0277 69.484L26.0348 68.4905Z" fill="#4D3102"/>
<path d="M34.3618 68.2261C34.0967 67.9611 33.832 67.9611 33.5673 68.2261L32.3759 69.4183C32.1112 69.6833 32.1112 69.9482 32.3759 70.2131L33.5673 71.4054C33.832 71.6704 34.0967 71.6704 34.3618 71.4054L35.5528 70.2131C35.8179 69.9482 35.8179 69.6833 35.5528 69.4183L34.3618 68.2261Z" fill="#4D3102"/>
<path d="M42.7122 67.9601C42.4039 67.6513 42.0942 67.6513 41.7855 67.9601L40.396 69.3511C40.0872 69.6599 40.0872 69.9696 40.396 70.2784L41.7855 71.6694C42.0942 71.9782 42.4039 71.9782 42.7122 71.6694L44.1022 70.2784C44.4108 69.9696 44.4108 69.6599 44.1022 69.3511L42.7122 67.9601Z" fill="#4D3102"/>
<path d="M51.0463 67.696C50.693 67.3425 50.3406 67.3425 49.9873 67.696L48.3989 69.2857C48.0456 69.6392 48.0456 69.9919 48.3989 70.3455L49.9873 71.9352C50.3406 72.2887 50.693 72.2887 51.0463 71.9352L52.6347 70.3455C52.988 69.9919 52.988 69.6392 52.6347 69.2857L51.0463 67.696Z" fill="#4D3102"/>
<path d="M59.3888 67.4295C58.9917 67.0321 58.5945 67.0321 58.1975 67.4295L56.4104 69.2179C56.0133 69.6153 56.0133 70.0127 56.4104 70.4101L58.1975 72.1985C58.5945 72.5959 58.9917 72.5959 59.3888 72.1985L61.1758 70.4101C61.5729 70.0127 61.5729 69.6153 61.1758 69.2179L59.3888 67.4295Z" fill="#4D3102"/>
<path d="M67.7234 67.1665C67.2824 66.7252 66.8406 66.7252 66.3997 67.1665L64.4141 69.1536C63.9732 69.5949 63.9732 70.037 64.4141 70.4783L66.3997 72.4654C66.8406 72.9067 67.2824 72.9067 67.7234 72.4654L69.709 70.4783C70.1499 70.037 70.1499 69.5949 69.709 69.1536L67.7234 67.1665Z" fill="#4D3102"/>
<path d="M76.0653 66.9024C75.5797 66.4164 75.0949 66.4164 74.6093 66.9024L72.4251 69.0882C71.9395 69.5742 71.9395 70.0594 72.4251 70.5454L74.6093 72.7312C75.0949 73.2172 75.5797 73.2172 76.0653 72.7312L78.2494 70.5454C78.7351 70.0594 78.7351 69.5742 78.2494 69.0882L76.0653 66.9024Z" fill="#4D3102"/>
<path d="M84.3999 66.6355C83.8704 66.1056 83.3409 66.1056 82.8115 66.6355L80.4288 69.02C79.8993 69.5499 79.8993 70.0798 80.4288 70.6097L82.8115 72.9942C83.3409 73.5241 83.8704 73.5241 84.3999 72.9942L86.7826 70.6097C87.3121 70.0798 87.3121 69.5499 86.7826 69.02L84.3999 66.6355Z" fill="#4D3102"/>
<path d="M1.00813 77.5662C0.919946 77.4777 0.83219 77.4777 0.74357 77.5662L0.346723 77.9635C0.258102 78.052 0.258102 78.1398 0.346723 78.2283L0.743569 78.6256C0.83219 78.7142 0.919946 78.7142 1.00813 78.6256L1.40542 78.2283C1.4936 78.1398 1.4936 78.052 1.40542 77.9635L1.00813 77.5662Z" fill="#4D3102"/>
<path d="M9.35062 77.302C9.21834 77.1696 9.08605 77.1696 8.95377 77.302L8.3585 77.8979C8.22621 78.0303 8.22621 78.1627 8.3585 78.2951L8.95377 78.891C9.08605 79.0235 9.21834 79.0235 9.35062 78.891L9.94632 78.2951C10.0786 78.1627 10.0786 78.0303 9.94632 77.8979L9.35062 77.302Z" fill="#4D3102"/>
<path d="M17.6856 77.0361C17.5092 76.8598 17.3324 76.8598 17.1565 77.0361L16.3623 77.8307C16.1864 78.0069 16.1864 78.1841 16.3623 78.3604L17.1565 79.1549C17.3324 79.3312 17.5092 79.3312 17.6856 79.1549L18.4793 78.3604C18.6557 78.1841 18.6557 78.0069 18.4793 77.8307L17.6856 77.0361Z" fill="#4D3102"/>
<path d="M26.0348 76.7673C25.8138 76.5462 25.5941 76.5462 25.3731 76.7673L24.3802 77.7608C24.1592 77.9819 24.1592 78.2021 24.3802 78.4232L25.3731 79.4167C25.5941 79.6378 25.8138 79.6378 26.0348 79.4167L27.0277 78.4232C27.2487 78.2021 27.2487 77.9819 27.0277 77.7608L26.0348 76.7673Z" fill="#4D3102"/>
<path d="M34.3618 76.5057C34.0967 76.2408 33.832 76.2408 33.5673 76.5057L32.3759 77.698C32.1112 77.9629 32.1112 78.2279 32.3759 78.4928L33.5673 79.6851C33.832 79.95 34.0967 79.95 34.3618 79.6851L35.5528 78.4928C35.8179 78.2279 35.8179 77.9629 35.5528 77.698L34.3618 76.5057Z" fill="#4D3102"/>
<path d="M42.7122 76.2417C42.4039 75.9329 42.0942 75.9329 41.7855 76.2417L40.396 77.6327C40.0872 77.9415 40.0872 78.2512 40.396 78.56L41.7855 79.951C42.0942 80.2598 42.4039 80.2598 42.7122 79.951L44.1022 78.56C44.4108 78.2512 44.4108 77.9415 44.1022 77.6327L42.7122 76.2417Z" fill="#4D3102"/>
<path d="M51.0463 75.9746C50.693 75.621 50.3406 75.621 49.9873 75.9746L48.3989 77.5643C48.0456 77.9178 48.0456 78.2705 48.3989 78.624L49.9873 80.2137C50.3406 80.5673 50.693 80.5673 51.0463 80.2137L52.6347 78.624C52.988 78.2705 52.988 77.9178 52.6347 77.5643L51.0463 75.9746Z" fill="#4D3102"/>
<path d="M59.3888 75.7097C58.9917 75.3122 58.5945 75.3122 58.1975 75.7097L56.4104 77.498C56.0133 77.8954 56.0133 78.2929 56.4104 78.6903L58.1975 80.4787C58.5945 80.8761 58.9917 80.8761 59.3888 80.4787L61.1758 78.6903C61.5729 78.2929 61.5729 77.8954 61.1758 77.498L59.3888 75.7097Z" fill="#4D3102"/>
<path d="M67.7234 75.4452C67.2824 75.0038 66.8406 75.0038 66.3997 75.4452L64.4141 77.4322C63.9732 77.8736 63.9732 78.3157 64.4141 78.757L66.3997 80.7441C66.8406 81.1854 67.2824 81.1854 67.7234 80.7441L69.709 78.757C70.1499 78.3157 70.1499 77.8736 69.709 77.4322L67.7234 75.4452Z" fill="#4D3102"/>
<path d="M76.0653 75.181C75.5797 74.695 75.0949 74.695 74.6093 75.181L72.4251 77.3669C71.9395 77.8529 71.9395 78.3381 72.4251 78.8241L74.6093 81.0099C75.0949 81.4959 75.5797 81.4959 76.0653 81.0099L78.2494 78.8241C78.7351 78.3381 78.7351 77.8529 78.2494 77.3669L76.0653 75.181Z" fill="#4D3102"/>
<path d="M84.3999 74.9171C83.8704 74.3872 83.3409 74.3872 82.8115 74.9171L80.4288 77.3016C79.8993 77.8315 79.8993 78.3614 80.4288 78.8913L82.8115 81.2758C83.3409 81.8057 83.8704 81.8057 84.3999 81.2758L86.7826 78.8913C87.3121 78.3614 87.3121 77.8315 86.7826 77.3016L84.3999 74.9171Z" fill="#4D3102"/>
<path d="M1.00813 85.8439C0.919946 85.7554 0.83219 85.7554 0.74357 85.8439L0.346723 86.2412C0.258102 86.3298 0.258102 86.4175 0.346723 86.506L0.743569 86.9033C0.83219 86.9919 0.919946 86.9919 1.00813 86.9033L1.40542 86.506C1.4936 86.4175 1.4936 86.3298 1.40542 86.2412L1.00813 85.8439Z" fill="#4D3102"/>
<path d="M9.35062 85.5786C9.21834 85.4462 9.08605 85.4462 8.95377 85.5786L8.3585 86.1745C8.22621 86.3069 8.22621 86.4393 8.3585 86.5717L8.95377 87.1677C9.08605 87.3001 9.21834 87.3001 9.35062 87.1677L9.94632 86.5717C10.0786 86.4393 10.0786 86.3069 9.94632 86.1745L9.35062 85.5786Z" fill="#4D3102"/>
<path d="M17.6856 85.3169C17.5092 85.1406 17.3324 85.1406 17.1565 85.3169L16.3623 86.1114C16.1864 86.2877 16.1864 86.4648 16.3623 86.6411L17.1565 87.4357C17.3324 87.6119 17.5092 87.6119 17.6856 87.4357L18.4793 86.6411C18.6557 86.4648 18.6557 86.2877 18.4793 86.1114L17.6856 85.3169Z" fill="#4D3102"/>
<path d="M26.0348 85.0479C25.8138 84.8269 25.5941 84.8269 25.3731 85.0479L24.3802 86.0414C24.1592 86.2625 24.1592 86.4827 24.3802 86.7038L25.3731 87.6974C25.5941 87.9184 25.8138 87.9184 26.0348 87.6974L27.0277 86.7038C27.2487 86.4827 27.2487 86.2625 27.0277 86.0414L26.0348 85.0479Z" fill="#4D3102"/>
<path d="M34.3618 84.782C34.0967 84.517 33.832 84.517 33.5673 84.782L32.3759 85.9742C32.1112 86.2392 32.1112 86.5041 32.3759 86.7691L33.5673 87.9613C33.832 88.2263 34.0967 88.2263 34.3618 87.9613L35.5528 86.7691C35.8179 86.5041 35.8179 86.2392 35.5528 85.9742L34.3618 84.782Z" fill="#4D3102"/>
<path d="M42.7122 84.5214C42.4039 84.2126 42.0942 84.2126 41.7855 84.5214L40.396 85.9124C40.0872 86.2212 40.0872 86.5309 40.396 86.8397L41.7855 88.2307C42.0942 88.5395 42.4039 88.5395 42.7122 88.2307L44.1022 86.8397C44.4108 86.5309 44.4108 86.2212 44.1022 85.9124L42.7122 84.5214Z" fill="#4D3102"/>
<path d="M51.0463 84.2563C50.693 83.9028 50.3406 83.9028 49.9873 84.2563L48.3989 85.846C48.0456 86.1995 48.0456 86.5522 48.3989 86.9058L49.9873 88.4955C50.3406 88.849 50.693 88.849 51.0463 88.4955L52.6347 86.9058C52.988 86.5522 52.988 86.1995 52.6347 85.846L51.0463 84.2563Z" fill="#4D3102"/>
<path d="M59.3888 83.9903C58.9917 83.5929 58.5945 83.5929 58.1975 83.9903L56.4104 85.7787C56.0133 86.1761 56.0133 86.5735 56.4104 86.9709L58.1975 88.7593C58.5945 89.1567 58.9917 89.1567 59.3888 88.7593L61.1758 86.9709C61.5729 86.5735 61.5729 86.1761 61.1758 85.7787L59.3888 83.9903Z" fill="#4D3102"/>
<path d="M67.7234 83.7258C67.2824 83.2845 66.8406 83.2845 66.3997 83.7258L64.4141 85.7129C63.9732 86.1542 63.9732 86.5963 64.4141 87.0376L66.3997 89.0247C66.8406 89.466 67.2824 89.466 67.7234 89.0247L69.709 87.0376C70.1499 86.5963 70.1499 86.1542 69.709 85.7129L67.7234 83.7258Z" fill="#4D3102"/>
<path d="M76.0653 83.4603C75.5797 82.9742 75.0949 82.9742 74.6093 83.4603L72.4251 85.646C71.9395 86.1321 71.9395 86.6172 72.4251 87.1032L74.6093 89.2891C75.0949 89.7751 75.5797 89.7751 76.0653 89.2891L78.2494 87.1032C78.7351 86.6172 78.7351 86.1321 78.2494 85.646L76.0653 83.4603Z" fill="#4D3102"/>
<path d="M84.3999 83.1968C83.8704 82.6669 83.3409 82.6669 82.8115 83.1968L80.4288 85.5813C79.8993 86.1112 79.8993 86.6411 80.4288 87.171L82.8115 89.5555C83.3409 90.0854 83.8704 90.0854 84.3999 89.5555L86.7826 87.171C87.3121 86.6411 87.3121 86.1112 86.7826 85.5813L84.3999 83.1968Z" fill="#4D3102"/>
</g>
</g>
<defs>
<clipPath id="clip0_1_6115">
<rect width="86.9247" height="89.9519" fill="white" transform="translate(87.1797 89.9519) rotate(-180)"/>
</clipPath>
</defs>
</svg>
